<svg width="580" height="400" xmlns="http://www.w3.org/2000/svg">
 <!-- Created with Method Draw - http://github.com/duopixel/Method-Draw/ -->

 <g>
  <title>background</title>
  <rect fill="#141414" id="canvas_background" height="402" width="582" y="-1" x="-1"/>
 </g>
 <g>
  <title>Layer 1</title>
  <line opacity="0.5" stroke-linecap="null" stroke-linejoin="null" id="svg_1" y2="200" x2="580.90091" y1="200" x1="0.90091" fill-opacity="null" stroke-width="3" stroke="#ffffff" fill="none"/>
  <line opacity="0.5" stroke-linecap="null" stroke-linejoin="null" id="svg_2" y2="400" x2="290.90091" y1="-0.864693" x1="290.90091" stroke-width="3" stroke="#ffffff" fill="none"/>
  <path id="svg_9" d="m25.714252,399.887238" opacity="0.5" fill-opacity="null" stroke-opacity="null" stroke-width="3" stroke="#000" fill="none"/>
  <path id="svg_34" d="m82.264169,217.017636" opacity="0.5" stroke-opacity="null" stroke-width="0" stroke="#ffffff" fill="#ffffff"/>
  <line stroke-linecap="null" stroke-linejoin="null" id="svg_42" y2="285.607484" x2="603.929846" y1="284.178906" x1="603.929846" stroke-opacity="null" stroke-width="4" stroke="#ffffff" fill="none"/>
  <ellipse fill="#ffffff" stroke-width="4" stroke-opacity="null" cx="441.541125" cy="74.014495" id="svg_7" rx="1.890422" ry="1.890422" stroke="#ffffff"/>
  <g id="svg_31" stroke="null">
   <line stroke-linecap="null" stroke-linejoin="null" id="svg_59" y2="177.264128" x2="263.783986" y1="223.279901" x1="309.79976" fill-opacity="null" stroke-opacity="null" stroke-width="6" fill="none" stroke="#ffffff"/>
   <path id="svg_61" d="m255.027898,179.444834l5.321147,-11.421004l5.321147,11.421004l-10.642294,0z" stroke-opacity="null" stroke-width="6" fill="#ffffff" stroke="#ffffff" transform="rotate(-44 260.34906005859375,173.73432922363278) "/>
   <path id="svg_30" d="m308.027898,232.444834l5.321147,-11.421004l5.321147,11.421004l-10.642294,0z" stroke-opacity="null" stroke-width="6" fill="#ffffff" stroke="#ffffff" transform="rotate(136 313.34906005859375,226.7343292236328) "/>
  </g>
  <line stroke-linecap="null" stroke-linejoin="null" id="svg_32" y2="47.347786" x2="119.995954" y1="374.746682" x1="447.394857" fill-opacity="null" stroke-opacity="null" stroke-width="6" fill="none" transform="rotate(90 283.69540405273443,211.04724121093753) " stroke="#ffffff"/>
  <path stroke="#ffffff" transform="rotate(46 452.43115234374994,42.74853515625004) " id="svg_33" d="m447.109993,48.459017l5.321147,-11.421004l5.321147,11.421004l-10.642294,0z" stroke-opacity="null" stroke-width="6" fill="#ffffff"/>
  <path stroke="#ffffff" transform="rotate(226 117.24010467529301,377.93957519531256) " id="svg_35" d="m111.918951,383.650117l5.321147,-11.421004l5.321147,11.421004l-10.642294,0z" stroke-opacity="null" stroke-width="6" fill="#ffffff"/>
  <ellipse fill="#ffffff" stroke-width="4" stroke-opacity="null" cx="411.404217" cy="93.877457" id="svg_37" rx="1.890422" ry="1.890422" stroke="#ffffff"/>
  <ellipse fill="#ffffff" stroke-width="4" stroke-opacity="null" cx="429.897319" cy="95.932246" id="svg_38" rx="1.890422" ry="1.890422" stroke="#ffffff"/>
  <ellipse fill="#ffffff" stroke-width="4" stroke-opacity="null" cx="359.349556" cy="172.644376" id="svg_39" rx="1.890422" ry="1.890422" stroke="#ffffff"/>
  <ellipse fill="#ffffff" stroke-width="4" stroke-opacity="null" cx="394.280973" cy="104.836333" id="svg_40" rx="1.890422" ry="1.890422" stroke="#ffffff"/>
  <ellipse fill="#ffffff" stroke-width="4" stroke-opacity="null" cx="379.212519" cy="102.781543" id="svg_41" rx="1.890422" ry="1.890422" stroke="#ffffff"/>
  <ellipse fill="#ffffff" stroke-width="4" stroke-opacity="null" cx="409.349427" cy="122.644506" id="svg_43" rx="1.890422" ry="1.890422" stroke="#ffffff"/>
  <ellipse fill="#ffffff" stroke-width="4" stroke-opacity="null" cx="397.020693" cy="119.219857" id="svg_44" rx="1.890422" ry="1.890422" stroke="#ffffff"/>
  <ellipse fill="#ffffff" stroke-width="4" stroke-opacity="null" cx="411.404217" cy="93.877457" id="svg_45" rx="1.890422" ry="1.890422" stroke="#ffffff"/>
  <ellipse fill="#ffffff" stroke-width="4" stroke-opacity="null" cx="343.596174" cy="169.904657" id="svg_46" rx="1.890422" ry="1.890422" stroke="#ffffff"/>
  <ellipse fill="#ffffff" stroke-width="4" stroke-opacity="null" cx="349.075611" cy="157.575921" id="svg_47" rx="1.890422" ry="1.890422" stroke="#ffffff"/>
  <ellipse fill="#ffffff" stroke-width="4" stroke-opacity="null" cx="337.431807" cy="141.137607" id="svg_48" rx="1.890422" ry="1.890422" stroke="#ffffff"/>
  <ellipse fill="#ffffff" stroke-width="4" stroke-opacity="null" cx="383.322097" cy="149.356763" id="svg_49" rx="1.890422" ry="1.890422" stroke="#ffffff"/>
  <ellipse fill="#ffffff" stroke-width="4" stroke-opacity="null" cx="364.828994" cy="150.726623" id="svg_50" rx="1.890422" ry="1.890422" stroke="#ffffff"/>
  <ellipse fill="#ffffff" stroke-width="4" stroke-opacity="null" cx="356.609837" cy="124.699294" id="svg_51" rx="1.890422" ry="1.890422" stroke="#ffffff"/>
  <ellipse fill="#ffffff" stroke-width="4" stroke-opacity="null" cx="378.527589" cy="131.548591" id="svg_52" rx="1.890422" ry="1.890422" stroke="#ffffff"/>
  <ellipse fill="#ffffff" stroke-width="4" stroke-opacity="null" cx="283.231632" cy="216.89264" id="svg_53" rx="1.890422" ry="1.890422" stroke="#ffffff"/>
  <ellipse fill="#ffffff" stroke-width="4" stroke-opacity="null" cx="255.377101" cy="228.934285" id="svg_54" rx="1.890422" ry="1.890422" stroke="#ffffff"/>
  <ellipse fill="#ffffff" stroke-width="4" stroke-opacity="null" cx="257.97995" cy="268.534536" id="svg_55" rx="1.890422" ry="1.890422" stroke="#ffffff"/>
  <ellipse fill="#ffffff" stroke-width="4" stroke-opacity="null" cx="273.733338" cy="253.466085" id="svg_56" rx="1.890422" ry="1.890422" stroke="#ffffff"/>
  <ellipse fill="#ffffff" stroke-width="4" stroke-opacity="null" cx="210.03487" cy="261.00031" id="svg_57" rx="1.890422" ry="1.890422" stroke="#ffffff"/>
  <ellipse fill="#ffffff" stroke-width="4" stroke-opacity="null" cx="248.390934" cy="262.370168" id="svg_58" rx="1.890422" ry="1.890422" stroke="#ffffff"/>
  <ellipse fill="#ffffff" stroke-width="4" stroke-opacity="null" cx="229.212902" cy="246.616788" id="svg_60" rx="1.890422" ry="1.890422" stroke="#ffffff"/>
  <ellipse fill="#ffffff" stroke-width="4" stroke-opacity="null" cx="211.40473" cy="235.657911" id="svg_62" rx="1.890422" ry="1.890422" stroke="#ffffff"/>
  <ellipse fill="#ffffff" stroke-width="4" stroke-opacity="null" cx="226.473183" cy="280.863271" id="svg_63" rx="1.890422" ry="1.890422" stroke="#ffffff"/>
  <ellipse fill="#ffffff" stroke-width="4" stroke-opacity="null" cx="220.308815" cy="332.233" id="svg_64" rx="1.890422" ry="1.890422" stroke="#ffffff"/>
  <ellipse fill="#ffffff" stroke-width="4" stroke-opacity="null" cx="223.733465" cy="311.685109" id="svg_65" rx="1.890422" ry="1.890422" stroke="#ffffff"/>
  <ellipse fill="#ffffff" stroke-width="4" stroke-opacity="null" cx="194.281487" cy="279.493413" id="svg_66" rx="1.890422" ry="1.890422" stroke="#ffffff"/>
  <ellipse fill="#ffffff" stroke-width="4" stroke-opacity="null" cx="342.911236" cy="199.356637" id="svg_67" rx="1.890422" ry="1.890422" stroke="#ffffff"/>
  <ellipse fill="#ffffff" stroke-width="4" stroke-opacity="null" cx="326.472922" cy="187.027902" id="svg_68" rx="1.890422" ry="1.890422" stroke="#ffffff"/>
  <ellipse fill="#ffffff" stroke-width="4" stroke-opacity="null" cx="297.705873" cy="222.644246" id="svg_69" rx="1.890422" ry="1.890422" stroke="#ffffff"/>
  <ellipse fill="#ffffff" stroke-width="4" stroke-opacity="null" cx="314.030783" cy="190.416276" id="svg_70" rx="1.890422" ry="1.890422" stroke="#ffffff"/>
  <ellipse fill="#ffffff" stroke-width="4" stroke-opacity="null" cx="273.733334" cy="226.753825" id="svg_71" rx="1.890422" ry="1.890422" stroke="#ffffff"/>
  <ellipse fill="#ffffff" stroke-width="4" stroke-opacity="null" cx="262.089527" cy="221.274387" id="svg_72" rx="1.890422" ry="1.890422" stroke="#ffffff"/>
  <ellipse fill="#ffffff" stroke-width="4" stroke-opacity="null" cx="352.500253" cy="134.973237" id="svg_73" rx="1.890422" ry="1.890422" stroke="#ffffff"/>
  <ellipse fill="#ffffff" stroke-width="4" stroke-opacity="null" cx="292.911365" cy="171.274514" id="svg_74" rx="1.890422" ry="1.890422" stroke="#ffffff"/>
  <ellipse fill="#ffffff" stroke-width="4" stroke-opacity="null" cx="321.678413" cy="219.219594" id="svg_75" rx="1.890422" ry="1.890422" stroke="#ffffff"/>
  <ellipse fill="#ffffff" stroke-width="4" stroke-opacity="null" cx="352.500251" cy="197.301843" id="svg_76" rx="1.890422" ry="1.890422" stroke="#ffffff"/>
  <ellipse fill="#ffffff" stroke-width="4" stroke-opacity="null" cx="327.157851" cy="204.15114" id="svg_77" rx="1.890422" ry="1.890422" stroke="#ffffff"/>
  <ellipse fill="#ffffff" stroke-width="4" stroke-opacity="null" cx="312.774327" cy="158.945779" id="svg_78" rx="1.890422" ry="1.890422" stroke="#ffffff"/>
  <ellipse fill="#ffffff" stroke-width="4" stroke-opacity="null" cx="305.925029" cy="169.219726" id="svg_79" rx="1.890422" ry="1.890422" stroke="#ffffff"/>
  <ellipse fill="#ffffff" stroke-width="4" stroke-opacity="null" cx="251.815584" cy="237.027768" id="svg_80" rx="1.890422" ry="1.890422" stroke="#ffffff"/>
  <ellipse fill="#ffffff" stroke-width="4" stroke-opacity="null" cx="338.116731" cy="150.726625" id="svg_81" rx="1.890422" ry="1.890422" stroke="#ffffff"/>
  <ellipse fill="#ffffff" stroke-width="4" stroke-opacity="null" cx="327.842782" cy="168.534797" id="svg_82" rx="1.890422" ry="1.890422" stroke="#ffffff"/>
  <ellipse fill="#ffffff" stroke-width="4" stroke-opacity="null" cx="275.103194" cy="199.356634" id="svg_83" rx="1.890422" ry="1.890422" stroke="#ffffff"/>
  <ellipse fill="#ffffff" stroke-width="4" stroke-opacity="null" cx="282.637422" cy="240.452417" id="svg_84" rx="1.890422" ry="1.890422" stroke="#ffffff"/>
  <ellipse fill="#ffffff" stroke-width="4" stroke-opacity="null" cx="262.08953" cy="249.356504" id="svg_85" rx="1.890422" ry="1.890422" stroke="#ffffff"/>
  <ellipse fill="#ffffff" stroke-width="4" stroke-opacity="null" cx="241.541639" cy="233.60312" id="svg_86" rx="1.890422" ry="1.890422" stroke="#ffffff"/>
  <ellipse fill="#ffffff" stroke-width="4" stroke-opacity="null" cx="266.884038" cy="204.836072" id="svg_87" rx="1.890422" ry="1.890422" stroke="#ffffff"/>
  <ellipse fill="#ffffff" stroke-width="4" stroke-opacity="null" cx="309.721587" cy="184.773563" id="svg_88" rx="1.890422" ry="1.890422" stroke="#ffffff"/>
  <ellipse fill="#ffffff" stroke-width="4" stroke-opacity="null" cx="289.522994" cy="186.76031" id="svg_89" rx="1.890422" ry="1.890422" stroke="#ffffff"/>
  <ellipse fill="#ffffff" stroke-width="4" stroke-opacity="null" cx="304.754722" cy="205.965531" id="svg_90" rx="1.890422" ry="1.890422" stroke="#ffffff"/>
  <ellipse fill="#ffffff" stroke-width="4" stroke-opacity="null" cx="296.807733" cy="196.031796" id="svg_91" rx="1.890422" ry="1.890422" stroke="#ffffff"/>
  <ellipse fill="#ffffff" stroke-width="4" stroke-opacity="null" cx="287.867372" cy="221.859507" id="svg_92" rx="1.890422" ry="1.890422" stroke="#ffffff"/>
  <ellipse fill="#ffffff" stroke-width="4" stroke-opacity="null" cx="279.258136" cy="213.912519" id="svg_93" rx="1.890422" ry="1.890422" stroke="#ffffff"/>
  <ellipse fill="#ffffff" stroke-width="4" stroke-opacity="null" cx="281.576007" cy="179.144448" id="svg_94" rx="1.890422" ry="1.890422" stroke="#ffffff"/>
  <ellipse fill="#ffffff" stroke-width="4" stroke-opacity="null" cx="315.019581" cy="176.495452" id="svg_95" rx="1.890422" ry="1.890422" stroke="#ffffff"/>
  <ellipse fill="#ffffff" stroke-width="4" stroke-opacity="null" cx="284.225002" cy="197.356294" id="svg_96" rx="1.890422" ry="1.890422" stroke="#ffffff"/>
  <ellipse fill="#ffffff" stroke-width="4" stroke-opacity="null" cx="297.138858" cy="189.078182" id="svg_97" rx="1.890422" ry="1.890422" stroke="#ffffff"/>
  <ellipse fill="#ffffff" stroke-width="4" stroke-opacity="null" cx="314.688457" cy="203.316535" id="svg_98" rx="1.890422" ry="1.890422" stroke="#ffffff"/>
  <ellipse fill="#ffffff" stroke-width="4" stroke-opacity="null" cx="283.231632" cy="216.89264" id="svg_99" rx="1.890422" ry="1.890422" stroke="#ffffff"/>
  <ellipse fill="#ffffff" stroke-width="4" stroke-opacity="null" cx="314.030783" cy="190.416276" id="svg_100" rx="1.890422" ry="1.890422" stroke="#ffffff"/>
  <ellipse fill="#ffffff" stroke-width="4" stroke-opacity="null" cx="386.215918" cy="111.939775" id="svg_101" rx="1.890422" ry="1.890422" stroke="#ffffff"/>
  <ellipse fill="#ffffff" stroke-width="4" stroke-opacity="null" cx="335.22275" cy="170.548806" id="svg_102" rx="1.890422" ry="1.890422" stroke="#ffffff"/>
  <ellipse fill="#ffffff" stroke-width="4" stroke-opacity="null" cx="336.216124" cy="207.63475" id="svg_103" rx="1.890422" ry="1.890422" stroke="#ffffff"/>
  <ellipse fill="#ffffff" stroke-width="4" stroke-opacity="null" cx="301.448052" cy="210.283746" id="svg_104" rx="1.890422" ry="1.890422" stroke="#ffffff"/>
  <ellipse fill="#ffffff" stroke-width="4" stroke-opacity="null" cx="93.845703" cy="344.26789" id="svg_105" rx="1.890422" ry="1.890422" stroke="#ffffff"/>
  <ellipse fill="#ffffff" stroke-width="4" stroke-opacity="null" cx="67.877907" cy="366.850354" id="svg_106" rx="1.890422" ry="1.890422" stroke="#ffffff"/>
  <ellipse fill="#ffffff" stroke-width="4" stroke-opacity="null" cx="115.377701" cy="363.933706" id="svg_107" rx="1.890422" ry="1.890422" stroke="#ffffff"/>
  <ellipse fill="#ffffff" stroke-width="4" stroke-opacity="null" cx="142.460922" cy="355.600408" id="svg_108" rx="1.890422" ry="1.890422" stroke="#ffffff"/>
  <ellipse fill="#ffffff" stroke-width="4" stroke-opacity="null" cx="161.21084" cy="347.68377" id="svg_109" rx="1.890422" ry="1.890422" stroke="#ffffff"/>
  <ellipse fill="#ffffff" stroke-width="4" stroke-opacity="null" cx="161.21084" cy="320.600555" id="svg_110" rx="1.890422" ry="1.890422" stroke="#ffffff"/>
  <ellipse fill="#ffffff" stroke-width="4" stroke-opacity="null" cx="174.127452" cy="319.767225" id="svg_111" rx="1.890422" ry="1.890422" stroke="#ffffff"/>
  <ellipse fill="#ffffff" stroke-width="4" stroke-opacity="null" cx="107.877735" cy="385.183614" id="svg_112" rx="1.890422" ry="1.890422" stroke="#ffffff"/>
  <ellipse fill="#ffffff" stroke-width="4" stroke-opacity="null" cx="151.627547" cy="338.517144" id="svg_113" rx="1.890422" ry="1.890422" stroke="#ffffff"/>
  <ellipse fill="#ffffff" stroke-width="4" stroke-opacity="null" cx="176.627441" cy="331.850507" id="svg_114" rx="1.890422" ry="1.890422" stroke="#ffffff"/>
  <ellipse fill="#ffffff" stroke-width="4" stroke-opacity="null" cx="17.090683" cy="363.332624" id="svg_115" rx="1.890422" ry="1.890422" stroke="#ffffff"/>
  <ellipse fill="#ffffff" stroke-width="4" stroke-opacity="null" cx="473.744463" cy="45.20098" id="svg_116" rx="1.890422" ry="1.890422" stroke="#ffffff"/>
  <ellipse fill="#ffffff" stroke-width="4" stroke-opacity="null" cx="324.027186" cy="179.664047" id="svg_117" rx="1.890422" ry="1.890422" stroke="#ffffff"/>
  <ellipse fill="#ffffff" stroke-width="4" stroke-opacity="null" cx="364.705088" cy="109.04269" id="svg_118" rx="1.890422" ry="1.890422" stroke="#ffffff"/>
  <ellipse fill="#ffffff" stroke-width="4" stroke-opacity="null" cx="334.196657" cy="89.833679" id="svg_119" rx="1.890422" ry="1.890422" stroke="#ffffff"/>
  <ellipse fill="#ffffff" stroke-width="4" stroke-opacity="null" cx="449.450717" cy="128.816669" id="svg_120" rx="1.890422" ry="1.890422" stroke="#ffffff"/>
 </g>
</svg>