<svg width="580" height="400" xmlns="http://www.w3.org/2000/svg">
 <!-- Created with Method Draw - http://github.com/duopixel/Method-Draw/ -->

 <g>
  <title>background</title>
  <rect x="-1" y="-1" width="582" height="402" id="canvas_background" fill="#141414"/>
 </g>
 <g>
  <title>Layer 1</title>
  <line fill="none" stroke="#ffffff" stroke-width="3" fill-opacity="null" x1="0.90091" y1="200" x2="580.90091" y2="200" id="svg_1" stroke-linejoin="null" stroke-linecap="null" opacity="0.5"/>
  <line fill="none" stroke="#ffffff" stroke-width="3" x1="290.90091" y1="-0.864693" x2="290.90091" y2="400" id="svg_2" stroke-linejoin="null" stroke-linecap="null" opacity="0.5"/>
  <path fill="none" stroke="#000" stroke-width="3" stroke-opacity="null" fill-opacity="null" opacity="0.5" d="m25.714252,399.887238" id="svg_9"/>
  <text fill="#ffffff" stroke="#ffffff" stroke-width="0.5" x="560.300784" y="221.691723" id="svg_22" font-size="26" font-family="'Times New Roman', Times, serif" text-anchor="start" xml:space="preserve" font-style="italic">x</text>
  <text fill="#ffffff" stroke="#ffffff" stroke-width="0.5" x="301.654147" y="20.939815" id="svg_23" font-size="26" font-family="'Times New Roman', Times, serif" text-anchor="start" xml:space="preserve" font-style="italic">y</text>
  <path fill="#ffffff" stroke="#ffffff" stroke-width="0" stroke-opacity="null" opacity="0.5" d="m82.264169,217.017636" id="svg_34"/>
  <line fill="none" stroke="#ffffff" stroke-width="4" stroke-opacity="null" x1="603.929846" y1="284.178906" x2="603.929846" y2="285.607484" id="svg_42" stroke-linejoin="null" stroke-linecap="null"/>
  <ellipse stroke="#ffffff" ry="1.890422" rx="1.890422" id="svg_7" cy="74.014495" cx="441.541125" stroke-opacity="null" stroke-width="4" fill="#ffffff"/>
  <g stroke="null" id="svg_31">
   <line stroke="#ffffff" fill="none" stroke-width="6" stroke-opacity="null" fill-opacity="null" x1="309.79976" y1="223.279901" x2="263.783986" y2="177.264128" id="svg_59" stroke-linejoin="null" stroke-linecap="null"/>
   <path transform="rotate(-44 260.34906005859375,173.73432922363278) " stroke="#ffffff" fill="#ffffff" stroke-width="6" stroke-opacity="null" d="m255.027898,179.444834l5.321147,-11.421004l5.321147,11.421004l-10.642294,0z" id="svg_61"/>
   <path transform="rotate(136 313.34906005859375,226.7343292236328) " stroke="#ffffff" fill="#ffffff" stroke-width="6" stroke-opacity="null" d="m308.027898,232.444834l5.321147,-11.421004l5.321147,11.421004l-10.642294,0z" id="svg_30"/>
  </g>
  <line stroke="#ffffff" transform="rotate(90 283.69540405273443,211.04724121093753) " fill="none" stroke-width="6" stroke-opacity="null" fill-opacity="null" x1="447.394857" y1="374.746682" x2="119.995954" y2="47.347786" id="svg_32" stroke-linejoin="null" stroke-linecap="null"/>
  <path fill="#ffffff" stroke-width="6" stroke-opacity="null" d="m447.109993,48.459017l5.321147,-11.421004l5.321147,11.421004l-10.642294,0z" id="svg_33" transform="rotate(46 452.43115234374994,42.74853515625004) " stroke="#ffffff"/>
  <path fill="#ffffff" stroke-width="6" stroke-opacity="null" d="m111.918951,383.650117l5.321147,-11.421004l5.321147,11.421004l-10.642294,0z" id="svg_35" transform="rotate(226 117.24010467529301,377.93957519531256) " stroke="#ffffff"/>
  <ellipse stroke="#ffffff" ry="1.890422" rx="1.890422" id="svg_37" cy="93.877457" cx="411.404217" stroke-opacity="null" stroke-width="4" fill="#ffffff"/>
  <ellipse stroke="#ffffff" ry="1.890422" rx="1.890422" id="svg_38" cy="95.932246" cx="429.897319" stroke-opacity="null" stroke-width="4" fill="#ffffff"/>
  <ellipse stroke="#ffffff" ry="1.890422" rx="1.890422" id="svg_39" cy="172.644376" cx="359.349556" stroke-opacity="null" stroke-width="4" fill="#ffffff"/>
  <ellipse stroke="#ffffff" ry="1.890422" rx="1.890422" id="svg_40" cy="104.836333" cx="394.280973" stroke-opacity="null" stroke-width="4" fill="#ffffff"/>
  <ellipse stroke="#ffffff" ry="1.890422" rx="1.890422" id="svg_41" cy="102.781543" cx="379.212519" stroke-opacity="null" stroke-width="4" fill="#ffffff"/>
  <ellipse stroke="#ffffff" ry="1.890422" rx="1.890422" id="svg_43" cy="122.644506" cx="409.349427" stroke-opacity="null" stroke-width="4" fill="#ffffff"/>
  <ellipse stroke="#ffffff" ry="1.890422" rx="1.890422" id="svg_44" cy="119.219857" cx="397.020693" stroke-opacity="null" stroke-width="4" fill="#ffffff"/>
  <ellipse stroke="#ffffff" ry="1.890422" rx="1.890422" id="svg_45" cy="93.877457" cx="411.404217" stroke-opacity="null" stroke-width="4" fill="#ffffff"/>
  <ellipse stroke="#ffffff" ry="1.890422" rx="1.890422" id="svg_46" cy="169.904657" cx="343.596174" stroke-opacity="null" stroke-width="4" fill="#ffffff"/>
  <ellipse stroke="#ffffff" ry="1.890422" rx="1.890422" id="svg_47" cy="157.575921" cx="349.075611" stroke-opacity="null" stroke-width="4" fill="#ffffff"/>
  <ellipse stroke="#ffffff" ry="1.890422" rx="1.890422" id="svg_48" cy="141.137607" cx="337.431807" stroke-opacity="null" stroke-width="4" fill="#ffffff"/>
  <ellipse stroke="#ffffff" ry="1.890422" rx="1.890422" id="svg_49" cy="149.356763" cx="383.322097" stroke-opacity="null" stroke-width="4" fill="#ffffff"/>
  <ellipse stroke="#ffffff" ry="1.890422" rx="1.890422" id="svg_50" cy="150.726623" cx="364.828994" stroke-opacity="null" stroke-width="4" fill="#ffffff"/>
  <ellipse stroke="#ffffff" ry="1.890422" rx="1.890422" id="svg_51" cy="124.699294" cx="356.609837" stroke-opacity="null" stroke-width="4" fill="#ffffff"/>
  <ellipse stroke="#ffffff" ry="1.890422" rx="1.890422" id="svg_52" cy="131.548591" cx="378.527589" stroke-opacity="null" stroke-width="4" fill="#ffffff"/>
  <ellipse stroke="#ffffff" ry="1.890422" rx="1.890422" id="svg_53" cy="216.89264" cx="283.231632" stroke-opacity="null" stroke-width="4" fill="#ffffff"/>
  <ellipse stroke="#ffffff" ry="1.890422" rx="1.890422" id="svg_54" cy="228.934285" cx="255.377101" stroke-opacity="null" stroke-width="4" fill="#ffffff"/>
  <ellipse stroke="#ffffff" ry="1.890422" rx="1.890422" id="svg_55" cy="268.534536" cx="257.97995" stroke-opacity="null" stroke-width="4" fill="#ffffff"/>
  <ellipse stroke="#ffffff" ry="1.890422" rx="1.890422" id="svg_56" cy="253.466085" cx="273.733338" stroke-opacity="null" stroke-width="4" fill="#ffffff"/>
  <ellipse stroke="#ffffff" ry="1.890422" rx="1.890422" id="svg_57" cy="261.00031" cx="210.03487" stroke-opacity="null" stroke-width="4" fill="#ffffff"/>
  <ellipse stroke="#ffffff" ry="1.890422" rx="1.890422" id="svg_58" cy="262.370168" cx="248.390934" stroke-opacity="null" stroke-width="4" fill="#ffffff"/>
  <ellipse stroke="#ffffff" ry="1.890422" rx="1.890422" id="svg_60" cy="246.616788" cx="229.212902" stroke-opacity="null" stroke-width="4" fill="#ffffff"/>
  <ellipse stroke="#ffffff" ry="1.890422" rx="1.890422" id="svg_62" cy="235.657911" cx="211.40473" stroke-opacity="null" stroke-width="4" fill="#ffffff"/>
  <ellipse stroke="#ffffff" ry="1.890422" rx="1.890422" id="svg_63" cy="280.863271" cx="226.473183" stroke-opacity="null" stroke-width="4" fill="#ffffff"/>
  <ellipse stroke="#ffffff" ry="1.890422" rx="1.890422" id="svg_64" cy="332.233" cx="220.308815" stroke-opacity="null" stroke-width="4" fill="#ffffff"/>
  <ellipse stroke="#ffffff" ry="1.890422" rx="1.890422" id="svg_65" cy="311.685109" cx="223.733465" stroke-opacity="null" stroke-width="4" fill="#ffffff"/>
  <ellipse stroke="#ffffff" ry="1.890422" rx="1.890422" id="svg_66" cy="279.493413" cx="194.281487" stroke-opacity="null" stroke-width="4" fill="#ffffff"/>
  <ellipse stroke="#ffffff" ry="1.890422" rx="1.890422" id="svg_67" cy="199.356637" cx="342.911236" stroke-opacity="null" stroke-width="4" fill="#ffffff"/>
  <ellipse stroke="#ffffff" ry="1.890422" rx="1.890422" id="svg_68" cy="187.027902" cx="326.472922" stroke-opacity="null" stroke-width="4" fill="#ffffff"/>
  <ellipse stroke="#ffffff" ry="1.890422" rx="1.890422" id="svg_69" cy="222.644246" cx="297.705873" stroke-opacity="null" stroke-width="4" fill="#ffffff"/>
  <ellipse stroke="#ffffff" ry="1.890422" rx="1.890422" id="svg_70" cy="190.416276" cx="314.030783" stroke-opacity="null" stroke-width="4" fill="#ffffff"/>
  <ellipse stroke="#ffffff" ry="1.890422" rx="1.890422" id="svg_71" cy="226.753825" cx="273.733334" stroke-opacity="null" stroke-width="4" fill="#ffffff"/>
  <ellipse stroke="#ffffff" ry="1.890422" rx="1.890422" id="svg_72" cy="221.274387" cx="262.089527" stroke-opacity="null" stroke-width="4" fill="#ffffff"/>
  <ellipse stroke="#ffffff" ry="1.890422" rx="1.890422" id="svg_73" cy="134.973237" cx="352.500253" stroke-opacity="null" stroke-width="4" fill="#ffffff"/>
  <ellipse stroke="#ffffff" ry="1.890422" rx="1.890422" id="svg_74" cy="171.274514" cx="292.911365" stroke-opacity="null" stroke-width="4" fill="#ffffff"/>
  <ellipse stroke="#ffffff" ry="1.890422" rx="1.890422" id="svg_75" cy="219.219594" cx="321.678413" stroke-opacity="null" stroke-width="4" fill="#ffffff"/>
  <ellipse stroke="#ffffff" ry="1.890422" rx="1.890422" id="svg_76" cy="197.301843" cx="352.500251" stroke-opacity="null" stroke-width="4" fill="#ffffff"/>
  <ellipse stroke="#ffffff" ry="1.890422" rx="1.890422" id="svg_77" cy="204.15114" cx="327.157851" stroke-opacity="null" stroke-width="4" fill="#ffffff"/>
  <ellipse stroke="#ffffff" ry="1.890422" rx="1.890422" id="svg_78" cy="158.945779" cx="312.774327" stroke-opacity="null" stroke-width="4" fill="#ffffff"/>
  <ellipse stroke="#ffffff" ry="1.890422" rx="1.890422" id="svg_79" cy="169.219726" cx="305.925029" stroke-opacity="null" stroke-width="4" fill="#ffffff"/>
  <ellipse stroke="#ffffff" ry="1.890422" rx="1.890422" id="svg_80" cy="237.027768" cx="251.815584" stroke-opacity="null" stroke-width="4" fill="#ffffff"/>
  <ellipse stroke="#ffffff" ry="1.890422" rx="1.890422" id="svg_81" cy="150.726625" cx="338.116731" stroke-opacity="null" stroke-width="4" fill="#ffffff"/>
  <ellipse stroke="#ffffff" ry="1.890422" rx="1.890422" id="svg_82" cy="168.534797" cx="327.842782" stroke-opacity="null" stroke-width="4" fill="#ffffff"/>
  <ellipse stroke="#ffffff" ry="1.890422" rx="1.890422" id="svg_83" cy="199.356634" cx="275.103194" stroke-opacity="null" stroke-width="4" fill="#ffffff"/>
  <ellipse stroke="#ffffff" ry="1.890422" rx="1.890422" id="svg_84" cy="240.452417" cx="282.637422" stroke-opacity="null" stroke-width="4" fill="#ffffff"/>
  <ellipse stroke="#ffffff" ry="1.890422" rx="1.890422" id="svg_85" cy="249.356504" cx="262.08953" stroke-opacity="null" stroke-width="4" fill="#ffffff"/>
  <ellipse stroke="#ffffff" ry="1.890422" rx="1.890422" id="svg_86" cy="233.60312" cx="241.541639" stroke-opacity="null" stroke-width="4" fill="#ffffff"/>
  <ellipse stroke="#ffffff" ry="1.890422" rx="1.890422" id="svg_87" cy="204.836072" cx="266.884038" stroke-opacity="null" stroke-width="4" fill="#ffffff"/>
  <ellipse stroke="#ffffff" ry="1.890422" rx="1.890422" id="svg_88" cy="184.773563" cx="309.721587" stroke-opacity="null" stroke-width="4" fill="#ffffff"/>
  <ellipse stroke="#ffffff" ry="1.890422" rx="1.890422" id="svg_89" cy="186.76031" cx="289.522994" stroke-opacity="null" stroke-width="4" fill="#ffffff"/>
  <ellipse stroke="#ffffff" ry="1.890422" rx="1.890422" id="svg_90" cy="205.965531" cx="304.754722" stroke-opacity="null" stroke-width="4" fill="#ffffff"/>
  <ellipse stroke="#ffffff" ry="1.890422" rx="1.890422" id="svg_91" cy="196.031796" cx="296.807733" stroke-opacity="null" stroke-width="4" fill="#ffffff"/>
  <ellipse stroke="#ffffff" ry="1.890422" rx="1.890422" id="svg_92" cy="221.859507" cx="287.867372" stroke-opacity="null" stroke-width="4" fill="#ffffff"/>
  <ellipse stroke="#ffffff" ry="1.890422" rx="1.890422" id="svg_93" cy="213.912519" cx="279.258136" stroke-opacity="null" stroke-width="4" fill="#ffffff"/>
  <ellipse stroke="#ffffff" ry="1.890422" rx="1.890422" id="svg_94" cy="179.144448" cx="281.576007" stroke-opacity="null" stroke-width="4" fill="#ffffff"/>
  <ellipse stroke="#ffffff" ry="1.890422" rx="1.890422" id="svg_95" cy="176.495452" cx="315.019581" stroke-opacity="null" stroke-width="4" fill="#ffffff"/>
  <ellipse stroke="#ffffff" ry="1.890422" rx="1.890422" id="svg_96" cy="197.356294" cx="284.225002" stroke-opacity="null" stroke-width="4" fill="#ffffff"/>
  <ellipse stroke="#ffffff" ry="1.890422" rx="1.890422" id="svg_97" cy="189.078182" cx="297.138858" stroke-opacity="null" stroke-width="4" fill="#ffffff"/>
  <ellipse stroke="#ffffff" ry="1.890422" rx="1.890422" id="svg_98" cy="203.316535" cx="314.688457" stroke-opacity="null" stroke-width="4" fill="#ffffff"/>
  <ellipse stroke="#ffffff" ry="1.890422" rx="1.890422" id="svg_99" cy="216.89264" cx="283.231632" stroke-opacity="null" stroke-width="4" fill="#ffffff"/>
  <ellipse stroke="#ffffff" ry="1.890422" rx="1.890422" id="svg_100" cy="190.416276" cx="314.030783" stroke-opacity="null" stroke-width="4" fill="#ffffff"/>
  <ellipse stroke="#ffffff" ry="1.890422" rx="1.890422" id="svg_101" cy="111.939775" cx="386.215918" stroke-opacity="null" stroke-width="4" fill="#ffffff"/>
  <ellipse stroke="#ffffff" ry="1.890422" rx="1.890422" id="svg_102" cy="170.548806" cx="335.22275" stroke-opacity="null" stroke-width="4" fill="#ffffff"/>
  <ellipse stroke="#ffffff" ry="1.890422" rx="1.890422" id="svg_103" cy="207.63475" cx="336.216124" stroke-opacity="null" stroke-width="4" fill="#ffffff"/>
  <ellipse stroke="#ffffff" ry="1.890422" rx="1.890422" id="svg_104" cy="210.283746" cx="301.448052" stroke-opacity="null" stroke-width="4" fill="#ffffff"/>
  <ellipse stroke="#ffffff" ry="1.890422" rx="1.890422" id="svg_105" cy="344.26789" cx="93.845703" stroke-opacity="null" stroke-width="4" fill="#ffffff"/>
  <ellipse stroke="#ffffff" ry="1.890422" rx="1.890422" id="svg_106" cy="366.850354" cx="67.877907" stroke-opacity="null" stroke-width="4" fill="#ffffff"/>
  <ellipse stroke="#ffffff" ry="1.890422" rx="1.890422" id="svg_107" cy="363.933706" cx="115.377701" stroke-opacity="null" stroke-width="4" fill="#ffffff"/>
  <ellipse stroke="#ffffff" ry="1.890422" rx="1.890422" id="svg_108" cy="355.600408" cx="142.460922" stroke-opacity="null" stroke-width="4" fill="#ffffff"/>
  <ellipse stroke="#ffffff" ry="1.890422" rx="1.890422" id="svg_109" cy="347.68377" cx="161.21084" stroke-opacity="null" stroke-width="4" fill="#ffffff"/>
  <ellipse stroke="#ffffff" ry="1.890422" rx="1.890422" id="svg_110" cy="320.600555" cx="161.21084" stroke-opacity="null" stroke-width="4" fill="#ffffff"/>
  <ellipse stroke="#ffffff" ry="1.890422" rx="1.890422" id="svg_111" cy="319.767225" cx="174.127452" stroke-opacity="null" stroke-width="4" fill="#ffffff"/>
  <ellipse stroke="#ffffff" ry="1.890422" rx="1.890422" id="svg_112" cy="385.183614" cx="107.877735" stroke-opacity="null" stroke-width="4" fill="#ffffff"/>
  <ellipse stroke="#ffffff" ry="1.890422" rx="1.890422" id="svg_113" cy="338.517144" cx="151.627547" stroke-opacity="null" stroke-width="4" fill="#ffffff"/>
  <ellipse stroke="#ffffff" ry="1.890422" rx="1.890422" id="svg_114" cy="331.850507" cx="176.627441" stroke-opacity="null" stroke-width="4" fill="#ffffff"/>
  <ellipse stroke="#ffffff" ry="1.890422" rx="1.890422" id="svg_115" cy="363.332624" cx="17.090683" stroke-opacity="null" stroke-width="4" fill="#ffffff"/>
  <ellipse stroke="#ffffff" ry="1.890422" rx="1.890422" id="svg_116" cy="45.20098" cx="473.744463" stroke-opacity="null" stroke-width="4" fill="#ffffff"/>
  <ellipse stroke="#ffffff" ry="1.890422" rx="1.890422" id="svg_117" cy="179.664047" cx="324.027186" stroke-opacity="null" stroke-width="4" fill="#ffffff"/>
  <ellipse stroke="#ffffff" ry="1.890422" rx="1.890422" id="svg_118" cy="109.04269" cx="364.705088" stroke-opacity="null" stroke-width="4" fill="#ffffff"/>
  <ellipse stroke="#ffffff" ry="1.890422" rx="1.890422" id="svg_119" cy="89.833679" cx="334.196657" stroke-opacity="null" stroke-width="4" fill="#ffffff"/>
  <ellipse stroke="#ffffff" ry="1.890422" rx="1.890422" id="svg_120" cy="128.816669" cx="449.450717" stroke-opacity="null" stroke-width="4" fill="#ffffff"/>
 </g>
</svg>