<svg width="580" height="400" xmlns="http://www.w3.org/2000/svg">
 <!-- Created with Method Draw - http://github.com/duopixel/Method-Draw/ -->
 <defs>
  <filter id="svg_58_blur">
   <feGaussianBlur stdDeviation="0"/>
  </filter>
 </defs>
 <g>
  <title>background</title>
  <rect fill="#141414" id="canvas_background" height="402" width="582" y="-1" x="-1"/>
 </g>
 <g>
  <title>Layer 1</title>
  <line opacity="0.5" stroke-linecap="null" stroke-linejoin="null" id="svg_1" y2="200" x2="580.90091" y1="200" x1="0.90091" fill-opacity="null" stroke-width="3" stroke="#ffffff" fill="none"/>
  <line opacity="0.5" stroke-linecap="null" stroke-linejoin="null" id="svg_2" y2="400" x2="290.90091" y1="-0.864693" x1="290.90091" stroke-width="3" stroke="#ffffff" fill="none"/>
  <path id="svg_9" d="m25.714252,399.887238" opacity="0.5" fill-opacity="null" stroke-opacity="null" stroke-width="3" stroke="#000" fill="none"/>
  <path id="svg_34" d="m82.264169,217.017636" opacity="0.5" stroke-opacity="null" stroke-width="0" stroke="#ffffff" fill="#ffffff"/>
  <line stroke-linecap="null" stroke-linejoin="null" id="svg_42" y2="285.607484" x2="603.929846" y1="284.178906" x1="603.929846" stroke-opacity="null" stroke-width="4" stroke="#ffffff" fill="none"/>
  <path id="svg_46" d="m289.6403,102.770029c-30.215755,-7.91365 -74.819964,45.323631 -92.805532,64.748045c-17.985568,19.424413 -33.093445,30.935177 -53.956704,45.323631c-20.863259,14.388455 -22.302104,30.935177 -28.776909,54.676127c-6.474804,23.74095 15.8273,41.726518 53.956704,57.553818c38.129405,15.8273 48.201323,29.496332 97.841491,2.158268c49.640168,-27.338063 23.021527,-84.891881 71.222849,-94.244377c48.201323,-9.352495 85.611304,-14.388454 99.280336,-47.481899c13.669032,-33.093446 30.935177,-49.640168 -5.035959,-74.819963c-35.971136,-25.179796 -61.870354,-45.323632 -96.402645,-29.496332c-34.532291,15.8273 -15.107877,29.496332 -45.323631,21.582682z" fill-opacity="null" stroke-opacity="null" stroke-width="6" stroke="#ffffff" fill="none"/>
  <path stroke="#ffffff" id="svg_47" d="m270.627807,138.168356c-22.41065,-5.869456 -47.579387,38.651933 -60.919059,53.058779c-13.339673,14.406846 -26.703265,21.505392 -42.177285,32.177129c-15.47402,10.671738 -22.296576,19.347122 -27.098858,36.95549c-4.802282,17.608368 11.738912,30.94804 40.019017,42.686952c28.280106,11.738911 35.750322,21.877063 72.567818,1.60076c36.817496,-20.276301 20.671893,-63.682676 47.06972,-83.568915c26.397827,-19.886238 69.252222,2.997294 79.390373,-21.547702c10.138152,-24.544998 22.944237,-36.817496 -3.735108,-55.493037c-26.679344,-18.675542 -45.888473,-33.615975 -71.500644,-21.877063c-25.612171,11.738912 -11.205324,21.877063 -33.615974,16.007607z" fill-opacity="null" stroke-opacity="null" stroke-width="6" fill="none"/>
  <path stroke="#ffffff" id="svg_48" d="m248.189977,173.941446c-15.373261,-4.02633 -21.847173,30.830995 -30.997923,40.713805c-9.150751,9.88281 -23.353868,18.349386 -31.091048,22.792295c-7.73718,4.442909 -16.733855,9.674627 -20.028125,21.753618c-3.29427,12.078991 0.858434,19.790896 20.258024,27.843556c19.399591,8.05266 24.524011,15.007231 49.780082,1.09809c25.256071,-13.90914 14.180508,-43.685051 32.288893,-57.326616c18.108385,-13.641565 8.656822,-15.929484 15.611393,-32.766864c6.95457,-16.837381 37.321972,-7.989926 36.286617,-20.081553c-1.035356,-12.091628 -31.478582,-23.059892 -49.048022,-15.007231c-17.569441,8.05266 -7.68663,15.007231 -23.059891,10.9809z" fill-opacity="null" stroke-opacity="null" stroke-width="6" fill="none"/>
  <path id="svg_50" d="m229.208791,227.949582c-6.474804,8.633073 -5.755382,10.791341 -20.863259,21.582682c-15.107877,10.791341 -24.460372,19.424414 -8.633073,22.302104c15.8273,2.877691 25.179796,8.633073 29.496332,-2.87769c4.316536,-11.510764 4.316536,-17.266146 10.071918,-25.899218c5.755382,-8.633073 11.510764,-19.424414 5.035959,-19.424414c-6.474804,0 -8.633072,-4.316536 -15.107877,4.316536z" fill-opacity="null" stroke-opacity="null" stroke-width="6" stroke="#ffffff" fill="none"/>
  <path stroke="#ffffff" id="svg_51" d="m420.316117,-0.452913c15.664731,39.193012 -8.811411,42.890466 32.308509,57.680282c41.11992,14.789816 57.763697,4.436945 93.009343,34.756068c35.245646,30.319123 21.539006,35.495558 62.658926,50.285374c41.11992,14.789816 106.715983,5.915926 106.127541,5.286845" fill-opacity="null" stroke-opacity="null" stroke-width="6" fill="none"/>
  <path stroke="#ffffff" id="svg_52" d="m451.516206,-13.252946c9.528957,23.84136 -5.360038,26.090545 19.653473,35.087285c25.013511,8.99674 35.138027,2.699022 56.578179,21.142338c21.440152,18.443317 13.102315,21.592176 38.115826,30.588916c25.013511,8.99674 64.916016,3.598696 64.558064,3.216022" fill-opacity="null" stroke-opacity="null" stroke-width="6" fill="none"/>
  <path stroke="#ffffff" id="svg_53" d="m502.716347,-9.252937c5.523659,13.820141 -3.107058,15.123928 11.392545,20.339076c14.499603,5.215148 20.36849,1.564544 32.796721,12.255597c12.42823,10.691053 7.595029,12.516355 22.094633,17.731503c14.499603,5.215148 37.629922,2.086059 37.422428,1.864234" fill-opacity="null" stroke-opacity="null" stroke-width="6" fill="none"/>
  <g filter="url(#svg_58_blur)" stroke="null" transform="rotate(90 -73.57948303222658,185.51937866210938) " id="svg_58">
   <path stroke="#ffffff" id="svg_54" d="m135.580038,195.918511c20.748464,-19.187433 -76.211444,-51.203013 -111.2945,-63.996401c-35.083055,-12.793388 -55.1079,-23.266582 -79.798777,-37.643856c-24.690879,-14.377275 -56.963417,-16.253225 -102.509155,-21.811136c-45.545738,-5.55791 -84.728236,7.913711 -122.390429,31.794306c-37.662193,23.880596 -66.258309,29.649182 -21.065087,63.465047c45.19322,33.815865 162.883006,19.788728 172.975867,51.646831c10.092859,31.858103 13.557774,56.457413 76.247336,67.222671c62.689564,10.765258 92.240678,22.927465 147.912603,0.981319c55.671927,-21.946146 99.714663,-37.632835 74.546286,-60.975507c-25.168377,-23.342671 -55.372609,-11.495843 -34.624145,-30.683275l0.000001,0.000001z" fill-opacity="null" stroke-opacity="null" stroke-width="6" fill="none"/>
   <path stroke="#ffffff" id="svg_55" d="m69.279382,181.54945c15.388878,-14.231081 -67.783167,-33.119851 -93.803833,-42.608548c-26.020666,-9.488697 -37.673922,-18.577394 -55.986838,-29.24084c-18.312917,-10.663446 -34.189895,-15.590743 -67.970604,-19.712976c-33.780708,-4.122233 -62.84188,5.869501 -90.775461,23.581442c-27.933579,17.711941 -49.142965,21.99043 -15.623712,47.071237c33.519249,25.080807 121.603706,17.055745 156.147961,35.342569c34.544252,18.286824 -17.798277,44.837005 28.697791,52.821464c46.496071,7.984459 68.413765,17.005016 109.70494,0.727832c41.291177,-16.277184 73.957127,-27.911806 55.290054,-45.224776c-18.667073,-17.312969 -41.069176,-8.526323 -25.680298,-22.757404z" fill-opacity="null" stroke-opacity="null" stroke-width="6" fill="none"/>
   <path stroke="#ffffff" id="svg_56" d="m2.831152,164.932936c10.556464,-9.762239 -56.836887,-15.951639 -74.686547,-22.460697c-17.84966,-6.509058 -32.047208,-16.221152 -39.448668,-21.502213c-7.401459,-5.28106 -16.136632,-11.425525 -39.309528,-14.253295c-23.172896,-2.82777 -39.043451,-0.567397 -58.205331,11.582642c-19.161881,12.15004 -33.711098,15.084998 -10.717557,32.289934c22.993539,17.204936 83.417728,11.699902 107.1144,24.2443c23.696672,12.544398 29.818361,6.531861 61.71374,12.009041c31.895381,5.47718 9.285598,24.710073 33.227785,24.724713c23.942189,0.014639 50.733122,-19.146945 37.92788,-31.023298c-12.80524,-11.876353 -28.17264,-5.848889 -17.616173,-15.611127l-0.000001,0z" fill-opacity="null" stroke-opacity="null" stroke-width="6" fill="none"/>
   <path stroke="#ffffff" id="svg_57" d="m-100.049497,149.526078c-15.853617,-4.698885 -20.219049,-4.354046 -38.829983,-14.786334c-18.610934,-10.432288 -33.969747,-17.001401 -42.346812,-6.87877c-8.377068,10.122632 -21.296467,15.873627 0.583893,19.333465c21.880363,3.459837 33.191647,3.787085 49.168963,8.018413c15.977318,4.231328 36.196367,8.585374 37.309677,4.37736c1.11331,-4.208014 9.967876,-5.365249 -5.885739,-10.064134l0.000001,0z" fill-opacity="null" stroke-opacity="null" stroke-width="6" fill="none"/>
  </g>
  <line stroke-linecap="null" stroke-linejoin="null" id="svg_59" y2="116.264128" x2="154.783986" y1="162.279901" x1="200.79976" fill-opacity="null" stroke-opacity="null" stroke-width="6" stroke="#ffffff" fill="none"/>
  <path stroke="#ffffff" transform="rotate(-44 151.34904479980472,112.73432922363281) " id="svg_61" d="m146.027898,118.444834l5.321147,-11.421004l5.321147,11.421004l-10.642294,0z" stroke-opacity="null" stroke-width="6" fill="#ffffff"/>
 </g>
</svg>