<svg width="725" height="714" xmlns="http://www.w3.org/2000/svg" xmlns:xlink="http://www.w3.org/1999/xlink" overflow="hidden"><defs><clipPath id="clip0"><rect x="1545" y="857" width="725" height="714"/></clipPath></defs><g clip-path="url(#clip0)" transform="translate(-1545 -857)"><path d="M0.293418-5.72165 322.043 10.7784 321.457 22.2216-0.293418 5.72165ZM-1.46709 28.6082C-17.267 27.798-29.4185 14.3328-28.6082-1.46709-27.798-17.267-14.3328-29.4185 1.46709-28.6082 17.267-27.798 29.4185-14.3328 28.6082 1.46709 27.798 17.267 14.3328 29.4185-1.46709 28.6082ZM323.217-12.1082C339.017-11.298 351.168 2.1672 350.358 17.9671 349.548 33.767 336.083 45.9185 320.283 45.1082 304.483 44.298 292.332 30.8328 293.142 15.0329 293.952-0.766984 307.417-12.9185 323.217-12.1082Z" transform="matrix(1 0 0 -1 1675.5 901)"/><path d="M2001.53 880.426 2246.28 1122.43 2238.22 1130.57 1993.47 888.574ZM1977.36 904.87C1966.11 893.746 1966.01 875.609 1977.13 864.359 1988.25 853.109 2006.39 853.007 2017.64 864.13 2028.89 875.254 2028.99 893.391 2017.87 904.641 2006.75 915.891 1988.61 915.993 1977.36 904.87ZM2262.39 1106.13C2273.64 1117.25 2273.74 1135.39 2262.62 1146.64 2251.5 1157.89 2233.36 1157.99 2222.11 1146.87 2210.86 1135.75 2210.76 1117.61 2221.88 1106.36 2233 1095.11 2251.14 1095.01 2262.39 1106.13Z"/><path d="M5.66049-0.884451 46.9105 263.116 35.5895 264.884-5.66049 0.884451ZM-28.3024 4.42225C-30.7448-11.2087-20.0533-25.8601-4.42225-28.3024 11.2087-30.7448 25.8601-20.0533 28.3024-4.42225 30.7448 11.2087 20.0533 25.8601 4.42225 28.3024-11.2087 30.7448-25.8601 20.0533-28.3024 4.42225ZM69.5524 259.578C71.9948 275.209 61.3033 289.86 45.6723 292.302 30.0413 294.745 15.3899 284.053 12.9476 268.422 10.5052 252.791 21.1967 238.14 36.8277 235.698 52.4587 233.255 67.1101 243.947 69.5524 259.578Z" transform="matrix(-1 0 0 1 2241.75 1126.5)"/><path d="M3.75742-4.32495 307.632 259.675 300.118 268.325-3.75742 4.32495ZM-18.7871 21.6247C-30.7301 11.2489-32.0006-6.84409-21.6247-18.7871-11.2489-30.7301 6.84409-32.0006 18.7871-21.6247 30.7301-11.2489 32.0006 6.84409 21.6247 18.7871 11.2489 30.7301-6.84409 32.0006-18.7871 21.6247ZM322.662 242.375C334.605 252.751 335.876 270.844 325.5 282.787 315.124 294.73 297.031 296.001 285.088 285.625 273.145 275.249 271.874 257.156 282.25 245.213 292.626 233.27 310.719 231.999 322.662 242.375Z" transform="matrix(-1 0 0 1 2241.37 1126.5)"/><path d="M2197.94 1395.62 1823.94 1208.62 1829.06 1198.38 2203.06 1385.38ZM2213.31 1364.88C2227.46 1371.95 2233.2 1389.16 2226.12 1403.31 2219.05 1417.46 2201.84 1423.2 2187.69 1416.12 2173.54 1409.05 2167.8 1391.84 2174.88 1377.69 2181.95 1363.54 2199.16 1357.8 2213.31 1364.88ZM1813.69 1229.12C1799.54 1222.05 1793.8 1204.84 1800.88 1190.69 1807.95 1176.54 1825.16 1170.8 1839.31 1177.88 1853.46 1184.95 1859.2 1202.16 1852.12 1216.31 1845.05 1230.46 1827.84 1236.2 1813.69 1229.12Z"/><path d="M5.05273-2.7006 175.553 316.299 165.447 321.701-5.05273 2.7006ZM-25.2637 13.503C-32.7212-0.449734-27.4557-17.8062-13.503-25.2637 0.449734-32.7212 17.8062-27.4557 25.2637-13.503 32.7212 0.449734 27.4557 17.8062 13.503 25.2637-0.449734 32.7212-17.8062 27.4557-25.2637 13.503ZM195.764 305.497C203.221 319.45 197.956 336.806 184.003 344.264 170.05 351.721 152.694 346.456 145.236 332.503 137.779 318.55 143.044 301.194 156.997 293.736 170.95 286.279 188.306 291.544 195.764 305.497Z" transform="matrix(1 0 0 -1 1826.5 1203.5)"/><path d="M1826.66 1209.85 1572.28 1200.23 1572.72 1188.77 1827.09 1198.4ZM1827.96 1175.5C1843.77 1176.1 1856.1 1189.4 1855.5 1205.21 1854.9 1221.02 1841.6 1233.35 1825.79 1232.75 1809.98 1232.15 1797.65 1218.85 1798.25 1203.04 1798.85 1187.23 1812.15 1174.9 1827.96 1175.5ZM1571.42 1223.13C1555.61 1222.53 1543.28 1209.23 1543.87 1193.42 1544.47 1177.61 1557.77 1165.28 1573.58 1165.87 1589.39 1166.47 1601.72 1179.77 1601.13 1195.58 1600.53 1211.39 1587.23 1223.72 1571.42 1223.13Z"/><path d="M4.58556-3.43453 258.961 336.19 249.789 343.06-4.58556 3.43453ZM-22.9278 17.1726C-32.412 4.50997-29.8353-13.4436-17.1726-22.9278-4.50997-32.412 13.4436-29.8353 22.9278-17.1726 32.412-4.50997 29.8353 13.4436 17.1726 22.9278 4.50997 32.412-13.4436 29.8353-22.9278 17.1726ZM277.303 322.452C286.787 335.115 284.21 353.069 271.548 362.553 258.885 372.037 240.931 369.46 231.447 356.798 221.963 344.135 224.54 326.181 237.202 316.697 249.865 307.213 267.819 309.79 277.303 322.452Z" transform="matrix(-1 0 0 1 1826.88 1203.5)"/><path d="M5.40395-1.9028 108.529 290.972 97.721 294.778-5.40395 1.9028ZM-27.0198 9.514C-32.2742-5.4086-24.4366-21.7653-9.514-27.0198 5.4086-32.2742 21.7653-24.4366 27.0198-9.514 32.2742 5.4086 24.4366 21.7653 9.514 27.0198-5.4086 32.2742-21.7653 24.4366-27.0198 9.514ZM130.145 283.361C135.399 298.284 127.562 314.64 112.639 319.895 97.7164 325.149 81.3597 317.312 76.1052 302.389 70.8508 287.466 78.6884 271.11 93.611 265.855 108.534 260.601 124.89 268.438 130.145 283.361Z" transform="matrix(-1 0 0 1 1675.63 901.5)"/><path d="M1678.61 898.91 1831.92 1201.41 1821.7 1206.59 1668.39 904.09ZM1647.95 914.45C1640.8 900.338 1646.44 883.101 1660.55 875.949 1674.66 868.797 1691.9 874.438 1699.05 888.55 1706.2 902.662 1700.56 919.9 1686.45 927.052 1672.34 934.204 1655.1 928.562 1647.95 914.45ZM1852.36 1191.05C1859.52 1205.16 1853.87 1222.4 1839.76 1229.55 1825.65 1236.7 1808.41 1231.06 1801.26 1216.95 1794.11 1202.84 1799.75 1185.6 1813.86 1178.45 1827.97 1171.3 1845.21 1176.94 1852.36 1191.05Z"/><path d="M1831.42 1200.57 1942.8 1387.57 1932.95 1393.43 1821.58 1206.43ZM1801.89 1218.16C1793.79 1204.57 1798.25 1186.98 1811.84 1178.89 1825.43 1170.79 1843.02 1175.25 1851.11 1188.84 1859.21 1202.43 1854.75 1220.02 1841.16 1228.11 1827.57 1236.21 1809.98 1231.75 1801.89 1218.16ZM1962.49 1375.84C1970.58 1389.43 1966.13 1407.02 1952.53 1415.11 1938.94 1423.21 1921.36 1418.75 1913.26 1405.16 1905.17 1391.57 1909.62 1373.98 1923.22 1365.89 1936.81 1357.79 1954.39 1362.25 1962.49 1375.84Z"/></g></svg>