<?xml version="1.0" encoding="UTF-8" standalone="no"?>
<svg
   xmlns:dc="http://purl.org/dc/elements/1.1/"
   xmlns:cc="http://creativecommons.org/ns#"
   xmlns:rdf="http://www.w3.org/1999/02/22-rdf-syntax-ns#"
   xmlns:svg="http://www.w3.org/2000/svg"
   xmlns="http://www.w3.org/2000/svg"
   viewBox="0 0 189.24133 227.03732"
   height="227.03732"
   width="189.24133"
   xml:space="preserve"
   id="svg2"
   version="1.1"><metadata
     id="metadata8"><rdf:RDF><cc:Work
         rdf:about=""><dc:format>image/svg+xml</dc:format><dc:type
           rdf:resource="http://purl.org/dc/dcmitype/StillImage" /></cc:Work></rdf:RDF></metadata><defs
     id="defs6"><clipPath
       id="clipPath68"
       clipPathUnits="userSpaceOnUse"><path
         id="path66"
         d="m 31.18147,0 c 0,1.56555 -1.2691,2.83466 -2.83467,2.83466 -1.56557,0 -2.83467,-1.26911 -2.83467,-2.83466 0,-1.56555 1.2691,-2.83466 2.83467,-2.83466 1.56557,0 2.83467,1.26911 2.83467,2.83466 z" /></clipPath></defs><g
     transform="matrix(1.3333333,0,0,-1.3333333,0,227.03733)"
     id="g10"><g
       transform="translate(70.966,70.966)"
       id="g12"><g
         id="g14"><g
           id="g16"><g
             id="g18"><path
               id="path20"
               style="fill:none;stroke:#808080;stroke-width:0.19925;stroke-linecap:butt;stroke-linejoin:miter;stroke-miterlimit:10;stroke-dasharray:none;stroke-opacity:1"
               d="M -70.867,-56.69362 H 70.867 M -70.867,-28.3468 H 70.867 M -70.867,0 H 70.867 M -70.867,28.3468 H 70.867 M -70.867,56.69362 H 70.867 M -70.867,85.04042 H 70.867 M -56.69362,-70.867 V 99.21382 M -28.3468,-70.867 V 99.21382 M 0,-70.867 V 99.21382 M 28.3468,-70.867 V 99.21382 M 56.69362,-70.867 V 99.21382" /></g><g
             id="g22"><path
               id="path24"
               style="fill:#f2f2f2;fill-opacity:1;fill-rule:nonzero;stroke:#000000;stroke-width:0.3985;stroke-linecap:butt;stroke-linejoin:miter;stroke-miterlimit:10;stroke-dasharray:none;stroke-opacity:1"
               d="m 39.68552,28.3468 c 0,6.26227 -5.07645,11.33872 -11.33872,11.33872 -6.26227,0 -11.33871,-5.07645 -11.33871,-11.33872 0,-6.26227 5.07644,-11.33871 11.33871,-11.33871 6.26227,0 11.33872,5.07644 11.33872,11.33871 z" /></g><g
             id="g26"><path
               id="path28"
               style="fill:#999999;fill-opacity:1;fill-rule:nonzero;stroke:#000000;stroke-width:0.3985;stroke-linecap:butt;stroke-linejoin:miter;stroke-miterlimit:10;stroke-dasharray:none;stroke-opacity:1"
               d="M 11.33871,0 C 11.33871,6.26227 6.26227,11.33871 0,11.33871 -6.26227,11.33871 -11.33871,6.26227 -11.33871,0 c 0,-6.26227 5.07644,-11.33871 11.33871,-11.33871 6.26227,0 11.33871,5.07644 11.33871,11.33871 z" /></g><g
             id="g30"><path
               id="path32"
               style="fill:#999999;fill-opacity:1;fill-rule:nonzero;stroke:#000000;stroke-width:0.3985;stroke-linecap:butt;stroke-linejoin:miter;stroke-miterlimit:10;stroke-dasharray:none;stroke-opacity:1"
               d="m 11.33871,28.3468 c 0,6.26227 -5.07644,11.33872 -11.33871,11.33872 -6.26227,0 -11.33871,-5.07645 -11.33871,-11.33872 0,-6.26227 5.07644,-11.33871 11.33871,-11.33871 6.26227,0 11.33871,5.07644 11.33871,11.33871 z" /></g><g
             id="g34"><path
               id="path36"
               style="fill:#999999;fill-opacity:1;fill-rule:nonzero;stroke:#000000;stroke-width:0.3985;stroke-linecap:butt;stroke-linejoin:miter;stroke-miterlimit:10;stroke-dasharray:none;stroke-opacity:1"
               d="m 2.83466,-28.3468 c 0,1.56557 -1.26911,2.83467 -2.83466,2.83467 -1.56555,0 -2.83466,-1.2691 -2.83466,-2.83467 0,-1.56557 1.26911,-2.83467 2.83466,-2.83467 1.56555,0 2.83466,1.2691 2.83466,2.83467 z" /></g><g
             id="g38"><path
               id="path40"
               style="fill:#999999;fill-opacity:1;fill-rule:nonzero;stroke:#000000;stroke-width:0.3985;stroke-linecap:butt;stroke-linejoin:miter;stroke-miterlimit:10;stroke-dasharray:none;stroke-opacity:1"
               d="m -17.00809,0 c 0,6.26227 -5.07644,11.33871 -11.33871,11.33871 -6.26227,0 -11.33872,-5.07644 -11.33872,-11.33871 0,-6.26227 5.07645,-11.33871 11.33872,-11.33871 6.26227,0 11.33871,5.07644 11.33871,11.33871 z" /></g><g
             id="g42"><path
               id="path44"
               style="fill:#999999;fill-opacity:1;fill-rule:nonzero;stroke:#000000;stroke-width:0.3985;stroke-linecap:butt;stroke-linejoin:miter;stroke-miterlimit:10;stroke-dasharray:none;stroke-opacity:1"
               d="m -25.51213,28.3468 c 0,1.56557 -1.2691,2.83467 -2.83467,2.83467 -1.56557,0 -2.83467,-1.2691 -2.83467,-2.83467 0,-1.56557 1.2691,-2.83467 2.83467,-2.83467 1.56557,0 2.83467,1.2691 2.83467,2.83467 z" /></g><g
             id="g46"><path
               id="path48"
               style="fill:#999999;fill-opacity:1;fill-rule:nonzero;stroke:#000000;stroke-width:0.3985;stroke-linecap:butt;stroke-linejoin:miter;stroke-miterlimit:10;stroke-dasharray:none;stroke-opacity:1"
               d="m 2.83466,56.69362 c 0,1.56555 -1.26911,2.83465 -2.83466,2.83465 -1.56555,0 -2.83466,-1.2691 -2.83466,-2.83465 0,-1.56557 1.26911,-2.83467 2.83466,-2.83467 1.56555,0 2.83466,1.2691 2.83466,2.83467 z" /></g><g
             id="g50"><path
               id="path52"
               style="fill:#f2f2f2;fill-opacity:1;fill-rule:nonzero;stroke:#000000;stroke-width:0.3985;stroke-linecap:butt;stroke-linejoin:miter;stroke-miterlimit:10;stroke-dasharray:none;stroke-opacity:1"
               d="m 31.18147,56.69362 c 0,1.56555 -1.2691,2.83465 -2.83467,2.83465 -1.56557,0 -2.83467,-1.2691 -2.83467,-2.83465 0,-1.56557 1.2691,-2.83467 2.83467,-2.83467 1.56557,0 2.83467,1.2691 2.83467,2.83467 z" /></g><g
             id="g54"><path
               id="path56"
               style="fill:#f2f2f2;fill-opacity:1;fill-rule:nonzero;stroke:#000000;stroke-width:0.3985;stroke-linecap:butt;stroke-linejoin:miter;stroke-miterlimit:10;stroke-dasharray:none;stroke-opacity:1"
               d="m 59.52827,28.3468 c 0,1.56557 -1.2691,2.83467 -2.83465,2.83467 -1.56557,0 -2.83467,-1.2691 -2.83467,-2.83467 0,-1.56557 1.2691,-2.83467 2.83467,-2.83467 1.56555,0 2.83465,1.2691 2.83465,2.83467 z" /></g><g
             id="g58"><path
               id="path60"
               style="fill:#999999;fill-opacity:1;fill-rule:nonzero;stroke:none"
               d="m 31.18147,0 c 0,1.56555 -1.2691,2.83466 -2.83467,2.83466 -1.56557,0 -2.83467,-1.26911 -2.83467,-2.83466 0,-1.56555 1.2691,-2.83466 2.83467,-2.83466 1.56557,0 2.83467,1.26911 2.83467,2.83466 z" /><g
               id="g62"><g
                 clip-path="url(#clipPath68)"
                 id="g64"><g
                   id="g70"><path
                     id="path72"
                     style="fill:#f2f2f2;fill-opacity:1;fill-rule:nonzero;stroke:none"
                     d="m 25.51213,-2.83466 h 5.66934 v 5.66932 z" /></g></g></g><path
               id="path74"
               style="fill:none;stroke:#000000;stroke-width:0.3985;stroke-linecap:butt;stroke-linejoin:miter;stroke-miterlimit:10;stroke-dasharray:none;stroke-opacity:1"
               d="m 31.18147,0 c 0,1.56555 -1.2691,2.83466 -2.83467,2.83466 -1.56557,0 -2.83467,-1.26911 -2.83467,-2.83466 0,-1.56555 1.2691,-2.83466 2.83467,-2.83466 1.56557,0 2.83467,1.26911 2.83467,2.83466 z" /></g><g
             id="g76"><path
               id="path78"
               style="fill:#999999;fill-opacity:1;fill-rule:nonzero;stroke:#000000;stroke-width:0.3985;stroke-linecap:butt;stroke-linejoin:miter;stroke-miterlimit:10;stroke-dasharray:none;stroke-opacity:1"
               d="m -25.51213,-28.3468 c 0,1.56557 -1.2691,2.83467 -2.83467,2.83467 -1.56557,0 -2.83467,-1.2691 -2.83467,-2.83467 0,-1.56557 1.2691,-2.83467 2.83467,-2.83467 1.56557,0 2.83467,1.2691 2.83467,2.83467 z" /></g><g
             id="g80"><path
               id="path82"
               style="fill:#999999;fill-opacity:1;fill-rule:nonzero;stroke:#000000;stroke-width:0.3985;stroke-linecap:butt;stroke-linejoin:miter;stroke-miterlimit:10;stroke-dasharray:none;stroke-opacity:1"
               d="m -53.85895,0 c 0,1.56555 -1.2691,2.83466 -2.83467,2.83466 -1.56555,0 -2.83465,-1.26911 -2.83465,-2.83466 0,-1.56555 1.2691,-2.83466 2.83465,-2.83466 1.56557,0 2.83467,1.26911 2.83467,2.83466 z" /></g><path
             id="path84"
             style="fill:none;stroke:#000000;stroke-width:0.3985;stroke-linecap:butt;stroke-linejoin:miter;stroke-miterlimit:10;stroke-dasharray:none;stroke-opacity:1"
             d="m -42.5202,0 v 14.17339 h 28.34681 V 42.5202 H 14.17339 V -14.17339 H -42.5202 Z" /></g></g></g></g></svg>