<?xml version="1.0" encoding="UTF-8" standalone="no"?>
<svg
   xmlns:dc="http://purl.org/dc/elements/1.1/"
   xmlns:cc="http://creativecommons.org/ns#"
   xmlns:rdf="http://www.w3.org/1999/02/22-rdf-syntax-ns#"
   xmlns:svg="http://www.w3.org/2000/svg"
   xmlns="http://www.w3.org/2000/svg"
   viewBox="0 0 652.43732 227.03732"
   height="227.03732"
   width="652.43732"
   xml:space="preserve"
   id="svg2"
   version="1.1"><metadata
     id="metadata8"><rdf:RDF><cc:Work
         rdf:about=""><dc:format>image/svg+xml</dc:format><dc:type
           rdf:resource="http://purl.org/dc/dcmitype/StillImage" /></cc:Work></rdf:RDF></metadata><defs
     id="defs6" /><g
     transform="matrix(1.3333333,0,0,-1.3333333,0,227.03733)"
     id="g10"><g
       transform="translate(70.966,70.966)"
       id="g12"><g
         id="g14"><g
           id="g16"><g
             id="g18"><path
               id="path20"
               style="fill:none;stroke:#808080;stroke-width:0.19925;stroke-linecap:butt;stroke-linejoin:miter;stroke-miterlimit:10;stroke-dasharray:none;stroke-opacity:1"
               d="M -70.867,-56.69362 H 70.867 M -70.867,-28.3468 H 70.867 M -70.867,0 H 70.867 M -70.867,28.3468 H 70.867 M -70.867,56.69362 H 70.867 M -70.867,85.04042 H 70.867 M -56.69362,-70.867 V 99.21382 M -28.3468,-70.867 V 99.21382 M 0,-70.867 V 99.21382 M 28.3468,-70.867 V 99.21382 M 56.69362,-70.867 V 99.21382" /></g><g
             id="g22"><path
               id="path24"
               style="fill:#f2f2f2;fill-opacity:1;fill-rule:nonzero;stroke:#000000;stroke-width:0.3985;stroke-linecap:butt;stroke-linejoin:miter;stroke-miterlimit:10;stroke-dasharray:none;stroke-opacity:1"
               d="m 11.33871,56.69362 c 0,6.26227 -5.07644,11.33871 -11.33871,11.33871 -6.26227,0 -11.33871,-5.07644 -11.33871,-11.33871 0,-6.26228 5.07644,-11.33872 11.33871,-11.33872 6.26227,0 11.33871,5.07644 11.33871,11.33872 z" /></g><g
             id="g26"><path
               id="path28"
               style="fill:#f2f2f2;fill-opacity:1;fill-rule:nonzero;stroke:#000000;stroke-width:0.3985;stroke-linecap:butt;stroke-linejoin:miter;stroke-miterlimit:10;stroke-dasharray:none;stroke-opacity:1"
               d="m -17.00809,28.3468 c 0,6.26227 -5.07644,11.33872 -11.33871,11.33872 -6.26227,0 -11.33872,-5.07645 -11.33872,-11.33872 0,-6.26227 5.07645,-11.33871 11.33872,-11.33871 6.26227,0 11.33871,5.07644 11.33871,11.33871 z" /></g><g
             id="g30"><path
               id="path32"
               style="fill:#f2f2f2;fill-opacity:1;fill-rule:nonzero;stroke:#000000;stroke-width:0.3985;stroke-linecap:butt;stroke-linejoin:miter;stroke-miterlimit:10;stroke-dasharray:none;stroke-opacity:1"
               d="m 39.68552,28.3468 c 0,6.26227 -5.07645,11.33872 -11.33872,11.33872 -6.26227,0 -11.33871,-5.07645 -11.33871,-11.33872 0,-6.26227 5.07644,-11.33871 11.33871,-11.33871 6.26227,0 11.33872,5.07644 11.33872,11.33871 z" /></g><g
             id="g34"><path
               id="path36"
               style="fill:#f2f2f2;fill-opacity:1;fill-rule:nonzero;stroke:#000000;stroke-width:0.3985;stroke-linecap:butt;stroke-linejoin:miter;stroke-miterlimit:10;stroke-dasharray:none;stroke-opacity:1"
               d="m -17.00809,0 c 0,6.26227 -5.07644,11.33871 -11.33871,11.33871 -6.26227,0 -11.33872,-5.07644 -11.33872,-11.33871 0,-6.26227 5.07645,-11.33871 11.33872,-11.33871 6.26227,0 11.33871,5.07644 11.33871,11.33871 z" /></g><g
             id="g38"><path
               id="path40"
               style="fill:#f2f2f2;fill-opacity:1;fill-rule:nonzero;stroke:#000000;stroke-width:0.3985;stroke-linecap:butt;stroke-linejoin:miter;stroke-miterlimit:10;stroke-dasharray:none;stroke-opacity:1"
               d="m 39.68552,0 c 0,6.26227 -5.07645,11.33871 -11.33872,11.33871 -6.26227,0 -11.33871,-5.07644 -11.33871,-11.33871 0,-6.26227 5.07644,-11.33871 11.33871,-11.33871 6.26227,0 11.33872,5.07644 11.33872,11.33871 z" /></g><g
             id="g42"><path
               id="path44"
               style="fill:#999999;fill-opacity:1;fill-rule:nonzero;stroke:#000000;stroke-width:0.3985;stroke-linecap:butt;stroke-linejoin:miter;stroke-miterlimit:10;stroke-dasharray:none;stroke-opacity:1"
               d="M 11.33871,0 C 11.33871,6.26227 6.26227,11.33871 0,11.33871 -6.26227,11.33871 -11.33871,6.26227 -11.33871,0 c 0,-6.26227 5.07644,-11.33871 11.33871,-11.33871 6.26227,0 11.33871,5.07644 11.33871,11.33871 z" /></g><g
             id="g46"><path
               id="path48"
               style="fill:#999999;fill-opacity:1;fill-rule:nonzero;stroke:#000000;stroke-width:0.3985;stroke-linecap:butt;stroke-linejoin:miter;stroke-miterlimit:10;stroke-dasharray:none;stroke-opacity:1"
               d="m 11.33871,28.3468 c 0,6.26227 -5.07644,11.33872 -11.33871,11.33872 -6.26227,0 -11.33871,-5.07645 -11.33871,-11.33872 0,-6.26227 5.07644,-11.33871 11.33871,-11.33871 6.26227,0 11.33871,5.07644 11.33871,11.33871 z" /></g><g
             id="g50"><path
               id="path52"
               style="fill:none;stroke:#000000;stroke-width:0.3985;stroke-linecap:butt;stroke-linejoin:miter;stroke-miterlimit:10;stroke-dasharray:none;stroke-opacity:1"
               d="M -14.17339,-14.17339 V 42.5202 h 28.34678 v -56.69359 z" /></g><g
             id="g54"><path
               id="path56"
               style="fill:#999999;fill-opacity:1;fill-rule:nonzero;stroke:#000000;stroke-width:0.3985;stroke-linecap:butt;stroke-linejoin:miter;stroke-miterlimit:10;stroke-dasharray:none;stroke-opacity:1"
               d="m 2.83466,-28.3468 c 0,1.56557 -1.26911,2.83467 -2.83466,2.83467 -1.56555,0 -2.83466,-1.2691 -2.83466,-2.83467 0,-1.56557 1.26911,-2.83467 2.83466,-2.83467 1.56555,0 2.83466,1.2691 2.83466,2.83467 z" /></g><path
             id="path58"
             style="fill:none;stroke:#000000;stroke-width:0.3985;stroke-linecap:butt;stroke-linejoin:miter;stroke-miterlimit:10;stroke-dasharray:none;stroke-opacity:1"
             d="M 70.867,14.17339 H 98.75554" /><g
             transform="translate(98.75554,14.17339)"
             id="g60"><g
               id="g62"><path
                 id="path64"
                 style="fill:none;stroke:#000000;stroke-width:0.31878999;stroke-linecap:round;stroke-linejoin:round;stroke-miterlimit:10;stroke-dasharray:none;stroke-opacity:1"
                 d="M -1.19551,1.59401 C -1.09587,0.99626 0,0.09961 0.29886,0 0,-0.09961 -1.09587,-0.99626 -1.19551,-1.59401" /></g></g></g></g><g
         transform="translate(173.698)"
         id="g66"><g
           id="g68"><g
             id="g70"><g
               id="g72"><path
                 id="path74"
                 style="fill:none;stroke:#808080;stroke-width:0.19925;stroke-linecap:butt;stroke-linejoin:miter;stroke-miterlimit:10;stroke-dasharray:none;stroke-opacity:1"
                 d="M -70.867,-56.69362 H 70.867 M -70.867,-28.3468 H 70.867 M -70.867,0 H 70.867 M -70.867,28.3468 H 70.867 M -70.867,56.69362 H 70.867 M -70.867,85.04042 H 70.867 M -56.69362,-70.867 V 99.21382 M -28.3468,-70.867 V 99.21382 M 0,-70.867 V 99.21382 M 28.3468,-70.867 V 99.21382 M 56.69362,-70.867 V 99.21382" /></g><g
               id="g76"><path
                 id="path78"
                 style="fill:#f2f2f2;fill-opacity:1;fill-rule:nonzero;stroke:#000000;stroke-width:0.3985;stroke-linecap:butt;stroke-linejoin:miter;stroke-miterlimit:10;stroke-dasharray:none;stroke-opacity:1"
                 d="m 11.33871,56.69362 c 0,6.26227 -5.07644,11.33871 -11.33871,11.33871 -6.26227,0 -11.33871,-5.07644 -11.33871,-11.33871 0,-6.26228 5.07644,-11.33872 11.33871,-11.33872 6.26227,0 11.33871,5.07644 11.33871,11.33872 z" /></g><g
               id="g80"><path
                 id="path82"
                 style="fill:#f2f2f2;fill-opacity:1;fill-rule:nonzero;stroke:#000000;stroke-width:0.3985;stroke-linecap:butt;stroke-linejoin:miter;stroke-miterlimit:10;stroke-dasharray:none;stroke-opacity:1"
                 d="m -17.00809,28.3468 c 0,6.26227 -5.07644,11.33872 -11.33871,11.33872 -6.26227,0 -11.33872,-5.07645 -11.33872,-11.33872 0,-6.26227 5.07645,-11.33871 11.33872,-11.33871 6.26227,0 11.33871,5.07644 11.33871,11.33871 z" /></g><g
               id="g84"><path
                 id="path86"
                 style="fill:#f2f2f2;fill-opacity:1;fill-rule:nonzero;stroke:#000000;stroke-width:0.3985;stroke-linecap:butt;stroke-linejoin:miter;stroke-miterlimit:10;stroke-dasharray:none;stroke-opacity:1"
                 d="m 39.68552,28.3468 c 0,6.26227 -5.07645,11.33872 -11.33872,11.33872 -6.26227,0 -11.33871,-5.07645 -11.33871,-11.33872 0,-6.26227 5.07644,-11.33871 11.33871,-11.33871 6.26227,0 11.33872,5.07644 11.33872,11.33871 z" /></g><g
               id="g88"><path
                 id="path90"
                 style="fill:#f2f2f2;fill-opacity:1;fill-rule:nonzero;stroke:#000000;stroke-width:0.3985;stroke-linecap:butt;stroke-linejoin:miter;stroke-miterlimit:10;stroke-dasharray:none;stroke-opacity:1"
                 d="m -17.00809,0 c 0,6.26227 -5.07644,11.33871 -11.33871,11.33871 -6.26227,0 -11.33872,-5.07644 -11.33872,-11.33871 0,-6.26227 5.07645,-11.33871 11.33872,-11.33871 6.26227,0 11.33871,5.07644 11.33871,11.33871 z" /></g><g
               id="g92"><path
                 id="path94"
                 style="fill:#f2f2f2;fill-opacity:1;fill-rule:nonzero;stroke:#000000;stroke-width:0.3985;stroke-linecap:butt;stroke-linejoin:miter;stroke-miterlimit:10;stroke-dasharray:none;stroke-opacity:1"
                 d="m 39.68552,0 c 0,6.26227 -5.07645,11.33871 -11.33872,11.33871 -6.26227,0 -11.33871,-5.07644 -11.33871,-11.33871 0,-6.26227 5.07644,-11.33871 11.33871,-11.33871 6.26227,0 11.33872,5.07644 11.33872,11.33871 z" /></g><g
               id="g96"><path
                 id="path98"
                 style="fill:#999999;fill-opacity:1;fill-rule:nonzero;stroke:#000000;stroke-width:0.3985;stroke-linecap:butt;stroke-linejoin:miter;stroke-miterlimit:10;stroke-dasharray:none;stroke-opacity:1"
                 d="M 11.33871,0 C 11.33871,6.26227 6.26227,11.33871 0,11.33871 -6.26227,11.33871 -11.33871,6.26227 -11.33871,0 c 0,-6.26227 5.07644,-11.33871 11.33871,-11.33871 6.26227,0 11.33871,5.07644 11.33871,11.33871 z" /></g><g
               id="g100"><path
                 id="path102"
                 style="fill:#999999;fill-opacity:1;fill-rule:nonzero;stroke:#000000;stroke-width:0.3985;stroke-linecap:butt;stroke-linejoin:miter;stroke-miterlimit:10;stroke-dasharray:none;stroke-opacity:1"
                 d="m 11.33871,28.3468 c 0,6.26227 -5.07644,11.33872 -11.33871,11.33872 -6.26227,0 -11.33871,-5.07645 -11.33871,-11.33872 0,-6.26227 5.07644,-11.33871 11.33871,-11.33871 6.26227,0 11.33871,5.07644 11.33871,11.33871 z" /></g><g
               id="g104"><path
                 id="path106"
                 style="fill:#f2f2f2;fill-opacity:1;fill-rule:nonzero;stroke:#000000;stroke-width:0.3985;stroke-linecap:butt;stroke-linejoin:miter;stroke-miterlimit:10;stroke-dasharray:none;stroke-opacity:1"
                 d="m 11.33871,-28.3468 c 0,6.26227 -5.07644,11.33871 -11.33871,11.33871 -6.26227,0 -11.33871,-5.07644 -11.33871,-11.33871 0,-6.26227 5.07644,-11.33872 11.33871,-11.33872 6.26227,0 11.33871,5.07645 11.33871,11.33872 z" /></g><path
               id="path108"
               style="fill:none;stroke:#000000;stroke-width:0.3985;stroke-linecap:butt;stroke-linejoin:miter;stroke-miterlimit:10;stroke-dasharray:none;stroke-opacity:1"
               d="M 70.867,14.17339 H 98.75554" /><g
               transform="translate(98.75554,14.17339)"
               id="g110"><g
                 id="g112"><path
                   id="path114"
                   style="fill:none;stroke:#000000;stroke-width:0.31878999;stroke-linecap:round;stroke-linejoin:round;stroke-miterlimit:10;stroke-dasharray:none;stroke-opacity:1"
                   d="M -1.19551,1.59401 C -1.09587,0.99626 0,0.09961 0.29886,0 0,-0.09961 -1.09587,-0.99626 -1.19551,-1.59401" /></g></g></g></g><g
           transform="translate(173.698)"
           id="g116"><g
             id="g118"><g
               id="g120"><g
                 id="g122"><path
                   id="path124"
                   style="fill:none;stroke:#808080;stroke-width:0.19925;stroke-linecap:butt;stroke-linejoin:miter;stroke-miterlimit:10;stroke-dasharray:none;stroke-opacity:1"
                   d="M -70.867,-56.69362 H 70.867 M -70.867,-28.3468 H 70.867 M -70.867,0 H 70.867 M -70.867,28.3468 H 70.867 M -70.867,56.69362 H 70.867 M -70.867,85.04042 H 70.867 M -56.69362,-70.867 V 99.21382 M -28.3468,-70.867 V 99.21382 M 0,-70.867 V 99.21382 M 28.3468,-70.867 V 99.21382 M 56.69362,-70.867 V 99.21382" /></g><g
                 id="g126"><path
                   id="path128"
                   style="fill:#f2f2f2;fill-opacity:1;fill-rule:nonzero;stroke:#000000;stroke-width:0.3985;stroke-linecap:butt;stroke-linejoin:miter;stroke-miterlimit:10;stroke-dasharray:none;stroke-opacity:1"
                   d="m 11.33871,56.69362 c 0,6.26227 -5.07644,11.33871 -11.33871,11.33871 -6.26227,0 -11.33871,-5.07644 -11.33871,-11.33871 0,-6.26228 5.07644,-11.33872 11.33871,-11.33872 6.26227,0 11.33871,5.07644 11.33871,11.33872 z" /></g><g
                 id="g130"><path
                   id="path132"
                   style="fill:#f2f2f2;fill-opacity:1;fill-rule:nonzero;stroke:#000000;stroke-width:0.3985;stroke-linecap:butt;stroke-linejoin:miter;stroke-miterlimit:10;stroke-dasharray:none;stroke-opacity:1"
                   d="m -17.00809,28.3468 c 0,6.26227 -5.07644,11.33872 -11.33871,11.33872 -6.26227,0 -11.33872,-5.07645 -11.33872,-11.33872 0,-6.26227 5.07645,-11.33871 11.33872,-11.33871 6.26227,0 11.33871,5.07644 11.33871,11.33871 z" /></g><g
                 id="g134"><path
                   id="path136"
                   style="fill:#f2f2f2;fill-opacity:1;fill-rule:nonzero;stroke:#000000;stroke-width:0.3985;stroke-linecap:butt;stroke-linejoin:miter;stroke-miterlimit:10;stroke-dasharray:none;stroke-opacity:1"
                   d="m 39.68552,28.3468 c 0,6.26227 -5.07645,11.33872 -11.33872,11.33872 -6.26227,0 -11.33871,-5.07645 -11.33871,-11.33872 0,-6.26227 5.07644,-11.33871 11.33871,-11.33871 6.26227,0 11.33872,5.07644 11.33872,11.33871 z" /></g><g
                 id="g138"><path
                   id="path140"
                   style="fill:#f2f2f2;fill-opacity:1;fill-rule:nonzero;stroke:#000000;stroke-width:0.3985;stroke-linecap:butt;stroke-linejoin:miter;stroke-miterlimit:10;stroke-dasharray:none;stroke-opacity:1"
                   d="m -17.00809,0 c 0,6.26227 -5.07644,11.33871 -11.33871,11.33871 -6.26227,0 -11.33872,-5.07644 -11.33872,-11.33871 0,-6.26227 5.07645,-11.33871 11.33872,-11.33871 6.26227,0 11.33871,5.07644 11.33871,11.33871 z" /></g><g
                 id="g142"><path
                   id="path144"
                   style="fill:#f2f2f2;fill-opacity:1;fill-rule:nonzero;stroke:#000000;stroke-width:0.3985;stroke-linecap:butt;stroke-linejoin:miter;stroke-miterlimit:10;stroke-dasharray:none;stroke-opacity:1"
                   d="m 39.68552,0 c 0,6.26227 -5.07645,11.33871 -11.33872,11.33871 -6.26227,0 -11.33871,-5.07644 -11.33871,-11.33871 0,-6.26227 5.07644,-11.33871 11.33871,-11.33871 6.26227,0 11.33872,5.07644 11.33872,11.33871 z" /></g><g
                 id="g146"><path
                   id="path148"
                   style="fill:#f2f2f2;fill-opacity:1;fill-rule:nonzero;stroke:#000000;stroke-width:0.3985;stroke-linecap:butt;stroke-linejoin:miter;stroke-miterlimit:10;stroke-dasharray:none;stroke-opacity:1"
                   d="m 11.33871,-28.3468 c 0,6.26227 -5.07644,11.33871 -11.33871,11.33871 -6.26227,0 -11.33871,-5.07644 -11.33871,-11.33871 0,-6.26227 5.07644,-11.33872 11.33871,-11.33872 6.26227,0 11.33871,5.07645 11.33871,11.33872 z" /></g></g></g></g></g></g></g></svg>