<svg width="1579" height="1580" xmlns="http://www.w3.org/2000/svg" xmlns:xlink="http://www.w3.org/1999/xlink" overflow="hidden"><defs><clipPath id="clip0"><rect x="1221" y="448" width="1579" height="1580"/></clipPath></defs><g clip-path="url(#clip0)" transform="translate(-1221 -448)"><path d="M1223.5 450.5 2797.5 450.5 2797.5 2025.5 1223.5 2025.5 1223.5 450.5ZM2274.04 562.99C2259.58 563.216 2241.07 564.455 2218.51 566.707L2171.86 579.258 1352.17 579.258 1352.17 1370.3 1335.36 1440.54C1330.67 1471.81 1328.16 1505.59 1327.84 1541.89 1328.02 1576.48 1330.31 1608.79 1334.71 1638.83L1352.17 1713.34 1352.17 1896.74 1501.55 1896.74 1555.54 1921.11C1604.33 1937.34 1660.45 1945.31 1723.92 1945.02 1747.4 1946.14 1781.95 1943.49 1827.59 1937.09 1850.41 1933.89 1874.63 1928.08 1900.27 1919.65L1956.45 1896.74 2668.82 1896.74 2668.82 1363.19 2678.53 1308.54 2668.82 1250.86 2668.82 669.588 2674.33 670.629C2679.98 670.483 2684.41 668.677 2687.61 665.21 2690.82 661.745 2692.45 657.495 2692.5 652.462 2692.27 648.68 2690.99 640.885 2688.66 629.075 2686.33 617.266 2684.35 607.375 2682.72 599.404 2680.56 583.231 2677.89 572.992 2674.68 568.687 2671.48 564.382 2663.91 562.521 2651.97 563.103 2629.4 563.132 2602.9 567.263 2572.47 575.494L2563.51 579.258 2411.79 579.258 2384.29 571.305C2349.99 565.168 2317.61 562.433 2287.15 563.103 2283.23 562.952 2278.86 562.915 2274.04 562.99Z" stroke="#0D0D0D" stroke-width="4.58333" stroke-miterlimit="8" fill-rule="evenodd"/><path d="M2172.27 579.5 2412.33 579.5 2435.91 586.317C2452.81 593.096 2469.57 601.729 2486.21 612.216L2564.13 579.5 2669.5 579.5 2669.5 669.838 2665.75 669.129C2661.87 668.02 2658.43 666.737 2655.43 665.28 2626.42 657.919 2600.55 653.438 2577.83 651.838 2555.11 650.237 2537.64 649.598 2525.41 649.917 2532.72 657.628 2541.51 673.657 2551.78 698.003 2562.06 722.348 2567.71 754.832 2568.72 795.454 2567.72 852.531 2555.84 896.993 2533.08 928.835 2510.33 960.678 2482.72 983.509 2450.26 997.329 2417.8 1011.15 2386.52 1019.56 2356.42 1022.56 2326.31 1025.57 2303.41 1026.77 2287.71 1026.17 2271.55 1026.92 2246.48 1025.41 2212.5 1021.64 2178.51 1017.87 2144.37 1007.32 2110.08 989.974 2109.35 993.902 2108.71 997.217 2108.16 999.923 2107.61 1002.63 2107.31 1006.29 2107.28 1010.92 2108.16 1029.07 2112.35 1043.38 2119.86 1053.86 2127.37 1064.33 2132.96 1070.96 2136.63 1073.75 2145.76 1081.79 2156.83 1086.67 2169.81 1088.42 2182.8 1090.16 2201.56 1090.86 2226.08 1090.51L2293.21 1090.51C2357.42 1089.16 2418.74 1091.86 2477.2 1098.6 2535.65 1105.34 2583.62 1124.21 2621.09 1155.2 2639.83 1170.7 2654.04 1191.25 2663.73 1216.86L2669.5 1251.16 2669.5 1363.5 2667.57 1374.37C2660.4 1393.49 2649.94 1409.91 2636.18 1423.61 2608.67 1451 2575.06 1470.65 2535.34 1482.54 2495.61 1494.43 2456.84 1501.66 2419.02 1504.25 2381.19 1506.83 2351.38 1507.87 2329.57 1507.35 2295.83 1508.05 2257.73 1506.3 2215.26 1502.11 2172.79 1497.93 2131.21 1487.1 2090.52 1469.65 2047.46 1448.12 2018.3 1422.38 2003.01 1392.43L1987.5 1353.47 1994.9 1349.72C1997.8 1344.62 1999.54 1340.16 2000.13 1336.33 2001.43 1330.84 2003.66 1319.5 2006.82 1302.31 2009.98 1285.11 2012.96 1268.2 2015.75 1251.57L2019.44 1226.17 2041.56 1205.64C2056.2 1197.64 2067.4 1192.39 2075.15 1189.88 2060.74 1170.4 2050.79 1150.58 2045.29 1130.4 2039.78 1110.23 2037.16 1093.21 2037.43 1079.34 2036.64 1074.8 2038.21 1061.54 2042.14 1039.54 2046.07 1017.54 2057.07 993.088 2075.15 966.182 2049.07 942.302 2031.02 914.836 2021.01 883.784 2011 852.732 2006.22 822.816 2006.69 794.038 2007.69 736.965 2019.57 692.508 2042.32 660.668 2065.08 628.827 2092.68 605.997 2125.13 592.18L2172.27 579.5ZM2287.71 663.881C2240.58 664.552 2211.3 676.858 2199.87 700.798 2188.44 724.739 2183.66 756.291 2185.53 795.454 2183.66 834.559 2188.44 865.879 2199.87 889.411 2211.3 912.945 2240.58 925.017 2287.71 925.629 2334.83 924.958 2364.11 912.653 2375.54 888.711 2386.97 864.77 2391.75 833.218 2389.89 794.055 2391.75 754.95 2386.97 723.632 2375.54 700.099 2364.11 676.565 2334.83 664.493 2287.71 663.881ZM2200.92 1242.98C2183.71 1241.61 2167.11 1244.35 2151.12 1251.21 2135.14 1258.06 2126.58 1277.26 2125.45 1308.79 2126.95 1340.86 2140.57 1363.85 2166.32 1377.77 2192.07 1391.69 2220.93 1400.16 2252.9 1403.18 2284.87 1406.21 2310.93 1407.42 2331.1 1406.81 2347.72 1407.39 2371.99 1406.23 2403.92 1403.34 2435.84 1400.44 2465.28 1392.33 2492.23 1379.01 2519.18 1365.69 2533.5 1343.69 2535.19 1312.99L2535.34 1313.01C2535.25 1288.06 2520.74 1270.11 2491.8 1259.14 2462.87 1248.18 2420.03 1242.79 2363.29 1242.98L2200.92 1242.98Z" stroke="#0D0D0D" stroke-width="4.58333" stroke-miterlimit="8" fill-rule="evenodd"/><path d="M1732.2 1132.54C1788.79 1132.47 1834.71 1136.78 1869.95 1145.47 1905.19 1154.16 1941.89 1167.65 1980.06 1185.94 1994.19 1192.31 2004.45 1197.94 2010.84 1202.84 2017.22 1207.74 2020.36 1213.79 2020.26 1220.99L2019.49 1226.25 2001.16 1243.23C1988.84 1260.23 1982.29 1283.5 1981.52 1313.03 1981.04 1324.51 1982.6 1336.86 1986.18 1350.08L1987.51 1353.42 1978.39 1358.03C1975.46 1358.42 1972.11 1357.65 1968.34 1355.73 1964.57 1353.82 1957.87 1348.45 1948.24 1339.64 1919.74 1314.48 1890.08 1295.39 1859.27 1282.36 1828.46 1269.33 1786.66 1262.78 1733.88 1262.71 1677.89 1263.61 1637.09 1277.42 1611.5 1304.15 1585.9 1330.87 1569.79 1365.12 1563.18 1406.9 1556.56 1448.68 1553.73 1492.59 1554.68 1538.64 1553.6 1575.74 1555.75 1615.44 1561.13 1657.74 1566.51 1700.04 1581.56 1736.4 1606.29 1766.81 1631.01 1797.22 1671.87 1813.14 1728.85 1814.56 1797.34 1812.23 1851.7 1799.75 1891.93 1777.14 1932.16 1754.53 1959.3 1735.79 1973.36 1720.91 1981.39 1712.9 1987.11 1708.02 1990.53 1706.28 1993.95 1704.54 1997.16 1703.84 2000.16 1704.19 2008.32 1704.78 2013.77 1707.78 2016.49 1713.18 2019.21 1718.58 2020.47 1722.83 2020.26 1725.93 2022.14 1739.17 2024.23 1759.09 2026.54 1785.7 2028.84 1812.31 2030.09 1831.38 2030.3 1842.93 2031.21 1850.48 2028.98 1856.67 2023.61 1861.5 2018.23 1866.33 2004.28 1874.61 1981.74 1886.33L1956.73 1896.5 1501.11 1896.5 1487.42 1890.34C1466.66 1878.1 1447.75 1863.81 1430.67 1847.45 1396.52 1814.74 1370.82 1772.93 1353.56 1722.02L1351.5 1713.26 1351.5 1370.54 1355.34 1354.56C1373.5 1302.15 1400.43 1259.81 1436.11 1227.53 1507.48 1162.97 1606.18 1131.31 1732.2 1132.54Z" stroke="#0D0D0D" stroke-width="4.58333" stroke-miterlimit="8" fill-rule="evenodd"/><path d="M2273.71 563.538C2278.53 563.464 2282.9 563.5 2286.82 563.648 2317.29 562.991 2349.68 565.675 2384 571.697L2411.5 579.5 2171.5 579.5 2218.16 567.184C2240.73 564.974 2259.24 563.758 2273.71 563.538Z" stroke="#0D0D0D" stroke-width="4.58333" stroke-miterlimit="8" fill-rule="evenodd"/><path d="M2651.96 563.604C2663.9 563.025 2671.47 564.875 2674.68 569.155 2677.88 573.435 2680.56 583.614 2682.72 599.692 2684.35 607.616 2686.33 617.449 2688.66 629.189 2690.99 640.93 2692.27 648.679 2692.5 652.439 2692.44 657.442 2690.81 661.668 2687.61 665.112 2684.4 668.559 2679.98 670.354 2674.33 670.5L2668.82 669.465 2668.82 579.664 2563.5 579.664 2572.46 575.922C2602.89 567.739 2629.39 563.632 2651.96 563.604Z" stroke="#0D0D0D" stroke-width="4.58333" stroke-miterlimit="8" fill-rule="evenodd"/><path d="M2019.5 1225.5 2015.81 1251.03C2013.02 1267.76 2010.05 1284.77 2006.89 1302.06 2003.73 1319.34 2001.5 1330.75 2000.2 1336.26 1999.6 1340.12 1997.86 1344.61 1994.97 1349.73L1987.57 1353.5 1986.24 1350.14C1982.66 1336.83 1981.11 1324.4 1981.58 1312.85 1982.35 1283.12 1988.89 1259.7 2001.2 1242.59L2019.5 1225.5Z" stroke="#0D0D0D" stroke-width="4.58333" stroke-miterlimit="8" fill-rule="evenodd"/><path d="M2669.5 1250.5 2678.5 1308.52 2669.5 1363.5 2669.5 1250.5Z" stroke="#0D0D0D" stroke-width="4.58333" stroke-miterlimit="8" fill-rule="evenodd"/><path d="M1351.5 1370.5 1351.5 1713.5 1334.28 1639C1329.94 1608.97 1327.68 1576.66 1327.5 1542.08 1327.82 1505.78 1330.29 1472 1334.92 1440.73L1351.5 1370.5Z" stroke="#0D0D0D" stroke-width="4.58333" stroke-miterlimit="8" fill-rule="evenodd"/><path d="M1501.5 1896.5 1956.5 1896.5 1900.31 1919.63C1874.66 1928.14 1850.43 1934.01 1827.61 1937.24 1781.96 1943.7 1747.4 1946.38 1723.92 1945.25 1660.44 1945.54 1604.3 1937.49 1555.51 1921.1L1501.5 1896.5Z" stroke="#0D0D0D" stroke-width="4.58333" stroke-miterlimit="8" fill-rule="evenodd"/></g></svg>