<svg width="580" height="400" xmlns="http://www.w3.org/2000/svg">
 <!-- Created with Method Draw - http://github.com/duopixel/Method-Draw/ -->

 <g>
  <title>background</title>
  <rect fill="#141414" id="canvas_background" height="402" width="582" y="-1" x="-1"/>
 </g>
 <g>
  <title>Layer 1</title>
  <path id="svg_16" d="m23.90091,404.39483c-0.32316,-7.07558 20.38346,-107.39482 67,-207.39483c46.61654,-100.00001 94.73685,-94.74805 100,-94.74805c5.26315,0 50.37593,0.63908 100,98.38345c49.62407,97.74437 93.23309,100.11279 100,101.61655c6.76691,1.50376 63.15788,9.02258 100,-100c36.84212,-109.02258 60.52635,-200.86469 60.37602,-200.75188" fill-opacity="null" stroke-width="6" stroke="#ffffff" fill="none"/>
  <line opacity="0.5" stroke-linecap="null" stroke-linejoin="null" id="svg_1" y2="200" x2="580.90091" y1="200" x1="0.90091" fill-opacity="null" stroke-width="3" stroke="#ffffff" fill="none"/>
  <line opacity="0.5" stroke-linecap="null" stroke-linejoin="null" id="svg_2" y2="400" x2="290.90091" y1="-0.864693" x1="290.90091" stroke-width="3" stroke="#ffffff" fill="none"/>
  <path id="svg_9" d="m25.71425,399.88724" opacity="0.5" fill-opacity="null" stroke-opacity="null" stroke-width="3" stroke="#000" fill="none"/>
  <line stroke="#ffffff" stroke-linecap="null" stroke-linejoin="null" id="svg_19" y2="272.818628" x2="-9.623163" y1="-0.86468" x1="264.060145" stroke-width="6" fill="none"/>
  <ellipse ry="9.022558" rx="9.022558" id="svg_21" cy="125.451112" cx="138.496222" stroke-opacity="null" stroke-width="3" stroke="#ffffff" fill="#ffffff"/>
  <path id="svg_34" d="m82.26417,217.01764" opacity="0.5" stroke-opacity="null" stroke-width="0" stroke="#ffffff" fill="#ffffff"/>
  <path opacity="0.45" id="svg_38" d="m210.2695,107.97209c0,0 0,309.92467 -0.35757,309.14904c0.35757,0.77563 150.83419,0.76385 150.4519,0c0.39741,0 -0.54334,-128.06622 -0.54334,-128.06622c0,0 -15.31546,-10.81091 -15.67304,-11.57476c0.35758,0.76385 -33.87698,-42.47981 -34.23456,-43.24366c0.35758,0.76385 -31.17426,-56.89437 -31.53183,-57.65822c0.35757,0.76385 -33.87699,-46.98435 -34.23457,-47.7482c0.35758,0.76385 -33.87699,-20.85798 -33.87699,-20.85798z" stroke-opacity="null" stroke-width="0" stroke="#ffffff" fill="#ffffff"/>
  <line stroke-width="4" stroke-linecap="null" stroke-linejoin="null" id="svg_41" y2="399.182875" x2="209.642531" y1="107.749619" x1="209.642531" stroke-opacity="null" stroke="#ffffff" fill="none"/>
  <line stroke-linecap="null" stroke-linejoin="null" id="svg_42" y2="285.607484" x2="603.929846" y1="284.178906" x1="603.929846" stroke-opacity="null" stroke-width="4" stroke="#ffffff" fill="none"/>
  <line stroke-linecap="null" stroke-linejoin="null" id="svg_43" y2="405.607971" x2="360.357428" y1="289.893215" x1="360.357428" fill-opacity="null" stroke-opacity="null" stroke-width="4" stroke="#ffffff" fill="none"/>
 </g>
</svg>