<svg width="580" height="400" xmlns="http://www.w3.org/2000/svg">
 <!-- Created with Method Draw - http://github.com/duopixel/Method-Draw/ -->
 <defs>
  <linearGradient spreadMethod="pad" y2="0" x2="1" y1="0" x1="0" id="svg_2">
   <stop offset="0" stop-color="#fff"/>
   <stop offset="0.820313" stop-color="#000000"/>
  </linearGradient>
  <radialGradient r="0.790706" cy="0.098437" cx="0.0625" spreadMethod="pad" id="svg_18">
   <stop offset="0.171875" stop-color="#fff"/>
   <stop offset="1" stop-color="#000000"/>
  </radialGradient>
 </defs>
 <g>
  <title>background</title>
  <rect x="-1" y="-1" width="582" height="402" id="canvas_background" fill="#141414"/>
 </g>
 <g>
  <title>Layer 1</title>
  <g stroke="null" id="svg_17">
   <path stroke="#ffffff" id="svg_10" d="m494.297539,105.018125c0,25.700029 -59.098422,46.534039 -132.000023,46.534039m132.000023,-46.534039l0,0c0,25.700029 -59.098422,46.534039 -132.000023,46.534039c-72.901559,0 -131.999968,-20.833969 -131.999968,-46.534039m0,0l0,0c0,-25.700015 59.098408,-46.534025 131.999968,-46.534025c72.901601,0 132.000023,20.834011 132.000023,46.534025l0,186.136226c0,25.700001 -59.098422,46.533956 -132.000023,46.533956c-72.901559,0 -131.999968,-20.833955 -131.999968,-46.533956l0,-186.136226z" fill-opacity="null" stroke-opacity="null" stroke-width="0" fill="url(#svg_2)"/>
   <ellipse stroke="#ffffff" ry="14.51309" rx="97.445033" id="svg_11" cy="88.707126" cx="356.440393" fill-opacity="null" stroke-opacity="null" stroke-width="0" fill="url(#svg_2)"/>
  </g>
  <path stroke="#ffffff" id="svg_14" d="m85.702473,208.98193l0,0c0,-51.904791 64.023291,-93.981936 143.000037,-93.981936l0,0c37.925949,0 74.298562,9.90164 101.116279,27.526672c26.817707,17.625032 41.883719,41.529709 41.883719,66.455264l0,0c0,51.904779 -64.023281,93.981923 -142.999998,93.981923l0,0c-78.976746,0 -143.000037,-42.077151 -143.000037,-93.981923zm143.000037,-93.981936l0,187.963859m-143.000037,-93.981923l286.000035,0" fill-opacity="0.81" stroke-opacity="null" stroke-width="0" fill="url(#svg_18)"/>
 </g>
</svg>