<svg width="740" height="936" xmlns="http://www.w3.org/2000/svg" xmlns:xlink="http://www.w3.org/1999/xlink" overflow="hidden"><defs><clipPath id="clip0"><path d="M270-187 1010-187 1010 749 270 749Z" fill-rule="evenodd" clip-rule="evenodd"/></clipPath></defs><g clip-path="url(#clip0)" transform="translate(-270 187)"><path d="M726.876 491.958C716.402 496.597 724.612 492.167 695.455 505.876 662.832 521.215 648.702 537.429 629.584 564.235 623.118 572.599 611.626 599.035 609.052 607.099 607.483 621.259 609.098 635.991 614.098 649.475 626.572 683.111 656.564 699.948 684.471 688.98 709.075 679.31 725.857 650.343 725.857 617.547 726.197 575.684 726.536 533.821 726.876 491.958ZM621.813 32.9224C606.86 32.8621 591.861 36.798 576.818 44.7306 561.774 52.6631 549.139 64.9557 538.913 81.6082 530.55 97.9735 525.46 115.02 523.642 132.747 521.824 150.475 521.097 166.613 521.46 181.161 521.082 194.877 521.839 211.227 523.733 230.211 525.627 249.195 530.929 266.998 539.64 283.621 549.73 300.274 562.092 312.566 576.727 320.499 591.362 328.432 606.633 332.368 622.54 332.307 640.962 332.111 657.566 327.236 672.352 317.683 687.138 308.131 698.652 295.081 706.894 278.534 714.559 262.124 719.224 245.168 720.891 227.668 722.557 210.167 723.224 194.665 722.89 181.161 723.284 166.825 722.497 150.445 720.527 132.021 718.558 113.597 713.044 96.3083 703.985 80.1553 694.289 64.5168 682.23 52.7388 667.807 44.8212 653.385 36.9039 638.053 32.9376 621.813 32.9224ZM548.813-187C600.302-186.737 645.426-174.766 684.183-151.085 722.94-127.405 743.32-93.5942 745.322-49.6524 744.948-30.3066 739.28-15.4498 728.318-5.08174 717.356 5.28618 703.346 10.5235 686.288 10.6305 668.107 10.2559 653.777 4.59109 643.296-6.36461 632.816-17.3197 627.468-31.3218 627.254-48.3697 626.479-57.8828 629.955-69.3193 637.682-82.6798 645.408-96.0401 662.038-104.27 687.572-107.37 671.948-122.564 654.27-133.557 634.539-140.351 614.808-147.144 596.929-151.36 580.902-152.999 564.876-154.638 554.608-155.322 550.099-155.052 526.501-155.675 501.402-148.417 474.802-133.277 448.203-118.137 425.39-91.3726 406.363-52.9838 387.337-14.5943 377.383 39.1622 376.502 108.286 377.478 176.649 388.098 229.949 408.364 268.188 428.629 306.426 452.68 333.172 480.517 348.424 508.355 363.677 534.121 371.005 557.815 370.41 576.94 371.796 598.224 367.896 621.667 358.711L643.436 348.848 621.813 350.378C593.045 350.096 566.562 342.919 542.364 328.845 518.166 314.771 498.695 295.49 483.95 271 469.205 246.511 461.629 218.503 461.223 186.975 461.531 156.281 468.738 128.138 482.846 102.545 496.953 76.9522 516.11 56.406 540.318 40.9057 564.525 25.4056 591.932 17.4475 622.54 17.0315 652.223 17.4071 679.136 25.2036 703.281 40.4214 727.425 55.639 746.68 76.0239 761.048 101.576 775.415 127.129 782.776 155.595 783.129 186.975 786.162 236.253 777.258 363.889 779.249 397.248L795.076 387.129C814.96 374.089 833.754 360.701 855.619 342.24 886.692 324.433 904.591 294.658 929.077 270.867 953.162 237.242 965.621 205.67 966.453 176.151 967.284 146.632 962.078 121.968 950.835 102.159 949.018 98.1972 943.775 89.7654 935.104 76.8646 926.432 63.9633 914.723 50.6548 899.976 36.9388 885.229 23.2232 867.835 13.1622 847.792 6.75708 856.74 29.9031 857.273 47.7979 849.392 60.4408 841.511 73.0839 833.341 81.2343 824.88 84.8922 810.251 92.4484 795.89 94.251 781.794 90.3005 767.699 86.3502 756.365 76.7202 747.794 61.4111 740.143 46.8392 738.247 32.5339 742.109 18.4947 745.971 4.45555 756.061-7.11388 772.382-16.2137 791.563-25.3342 810.672-29.3933 829.707-28.3912 848.742-27.389 867.704-21.3254 886.592-10.2005 924.369 12.0486 955.055 45.0334 978.65 88.7521 1002.56 135.097 1014.83 185.068 1008.23 230.111 1001.62 275.154 975.841 320.352 939.023 359.008 912.613 379.31 846.039 434.127 787.317 462.05L779.249 465.947 777.752 621.736C767.813 697.699 733.462 736.379 698.232 745.787 663.003 755.196 590.969 734.961 566.374 678.186 555.457 652.985 551.882 625.097 555.174 598.383 557.316 581.904 566.645 569.016 572.38 554.332 596.435 510.314 617.481 492.496 647.479 467.68 664.621 453.499 685.007 443.834 705.924 434.677L726.876 425.443 726.876 310.837C726.868 310.844 726.859 310.851 726.851 310.858L717.398 323.745C706.664 336.659 693.538 349.395 678.022 361.953 646.99 387.068 603.063 400.537 546.242 402.359 495.872 401.806 449.901 388.797 408.328 363.333 366.755 337.869 333.469 303.267 308.47 259.529 283.471 215.79 270.648 166.232 270 110.856 270.465 57.0518 282.654 7.72249 306.565-37.1331 330.477-81.9882 363.318-117.998 405.089-145.162 446.86-172.325 494.769-186.271 548.813-187Z" fill="#2b2b2b" fill-rule="evenodd"/></g></svg>
