<svg width="579.9999999999999" height="400.00000000000006" xmlns="http://www.w3.org/2000/svg">
 <!-- Created with Method Draw - http://github.com/duopixel/Method-Draw/ -->

 <g>
  <title>background</title>
  <rect fill="#141414" id="canvas_background" height="402" width="582" y="-1" x="-1"/>
 </g>
 <g>
  <title>Layer 1</title>
  <path id="svg_9" d="m25.71425,399.88724" opacity="0.5" fill-opacity="null" stroke-opacity="null" stroke-width="3" stroke="#000" fill="none"/>
  <path fill="#ffffff" stroke="#ffffff" stroke-width="8.5" stroke-opacity="null" fill-opacity="0.5" opacity="0.5" d="m-70.5,186.85" id="svg_13"/>
  <path fill="#ffffff" stroke-width="6" d="m634.966501,207.875005l9.000002,-15.750003l9.000002,15.750003l-18.000003,0l-0.000001,0z" id="svg_5" transform="rotate(-122 643.9664916992188,147.30819702148432) " stroke="#ffffff"/>
  <g id="svg_19">
   <ellipse fill="#ffffff" stroke="#ffffff" stroke-width="9" cx="373" cy="254.85" id="svg_2" rx="43" ry="43" fill-opacity="0.5"/>
   <ellipse fill="none" stroke="#ffffff" stroke-width="9" cx="207" cy="172.85" id="svg_1" rx="43" ry="43"/>
   <g id="svg_12" transform="rotate(-118 295.75213623046875,319.2425537109375) ">
    <path fill="none" stroke-width="6" stroke-opacity="null" fill-opacity="null" d="m281,364.85c0,0 -42,-49 -30,-74c12,-25 81,-22 87,4c6,26 -4,52 -4.5,51.15" id="svg_10" stroke="#ffffff"/>
    <path fill="#ffffff" stroke-width="6" d="m322.66749,361.0789l9,-15.75001l9.00001,15.75001l-18.00001,0z" id="svg_11" transform="rotate(-162 331.66748046874994,353.2038879394531) " stroke="#ffffff"/>
   </g>
   <g id="svg_8">
    <path transform="rotate(40 255.73052978515622,85.32269287109374) " fill="none" stroke-width="6" stroke-opacity="null" fill-opacity="null" d="m242.35311,130.930131c0,0 -42,-49 -30,-74c12,-25 81,-22 87,4c6,26 -4,52 -4.5,51.15" id="svg_6" stroke="#ffffff"/>
    <path fill="#ffffff" stroke-width="6" d="m253.466501,143.183202l9.000002,-15.750003l9.000002,15.750003l-18.000003,0l-0.000001,0z" id="svg_7" transform="rotate(-122 262.46649169921875,135.30819702148435) " stroke="#ffffff"/>
   </g>
   <g id="svg_15">
    <path id="svg_4" d="m265.925466,173.539441c37,11 65,34 64.5,33.15" fill-opacity="0" stroke-opacity="null" stroke-width="6" stroke="#ffffff" fill="none"/>
    <path fill="#ffffff" stroke-width="6" d="m318.044141,214.009289l9.000002,-15.750003l9.000002,15.750003l-18.000003,0l-0.000001,0z" id="svg_14" transform="rotate(130 327.04412841796875,206.13427734375003) " stroke="#ffffff"/>
   </g>
   <g transform="rotate(180 284.0706787109375,219.72808837890628) " id="svg_18">
    <path id="svg_16" d="m247.602485,197.452485c37,11 65,34 64.5,33.15" fill-opacity="0" stroke-opacity="null" stroke-width="6" stroke="#ffffff" fill="none"/>
    <path fill="#ffffff" stroke-width="6" d="m299.72116,237.922333l9.000002,-15.750003l9.000002,15.750003l-18.000003,0l-0.000001,0z" id="svg_17" transform="rotate(130 308.7211608886719,230.04731750488287) " stroke="#ffffff"/>
   </g>
  </g>
 </g>
</svg>