<svg width="580" height="400" xmlns="http://www.w3.org/2000/svg">
 <!-- Created with Method Draw - http://github.com/duopixel/Method-Draw/ -->
 <defs>
  <radialGradient id="svg_63" spreadMethod="pad" cx="0.625" cy="0.403125" r="1.48834" gradientTransform="rotate(19,0.625,0.40312492847442627) translate(0,0.21963358172054948) scale(1,0.45517241379310347)">
   <stop stop-color="#191919" offset="0.207031"/>
   <stop stop-color="#e6e6e6" offset="1"/>
  </radialGradient>
  <radialGradient id="svg_72" spreadMethod="pad" cx="0.835938" cy="0.157031" r="1.577441" gradientTransform="translate(0,0.05024997711181642) scale(1,0.6799999999999999)">
   <stop stop-color="#191919" offset="0.640625"/>
   <stop stop-color="#e6e6e6" offset="1"/>
  </radialGradient>
  <filter id="svg_3_blur">
   <feGaussianBlur stdDeviation="0" in="SourceGraphic"/>
  </filter>
 </defs>
 <g>
  <title>background</title>
  <rect x="-1" y="-1" width="582" height="402" id="canvas_background" fill="#141414"/>
 </g>
 <g>
  <title>Layer 1</title>
  <path fill="none" stroke="#000" stroke-width="3" stroke-opacity="null" fill-opacity="null" opacity="0.5" d="m25.71425,399.88724" id="svg_9"/>
  <path fill="#191919" stroke="#ffffff" stroke-width="1.5" stroke-opacity="null" id="svg_40"/>
  <path fill="url(#svg_72)" stroke="#ffffff" stroke-width="1.5" stroke-opacity="null" fill-opacity="0.5" d="m386.02857,154.15584c6.77965,-20.76266 10.5932,-65.6778 36.01686,-40.25414c25.42367,25.42367 27.37536,68.76796 22.35227,100.848c-5.0231,32.08003 -27.67156,44.94843 -40.52399,52.58991c-12.85242,7.64148 -32.46794,14.64182 -56.85701,12.05153c-24.38907,-2.59029 -7.43007,-4.75012 -0.20768,-17.88751c7.22239,-13.1374 7.8637,-14.12769 7.8637,-14.12769c0,0 24.57621,-72.45744 31.35586,-93.2201l-0.00001,0z" id="svg_43"/>
  <path fill="url(#svg_63)" stroke="#ffffff" stroke-width="1.5" fill-opacity="0.72" d="m368.52016,205.08392c-15,42 -15.86444,77.47456 -82,87c-66.13556,9.52545 -106.72932,-37.39097 -125.72932,-66.39097c-19,-29 -48.27068,-111.60903 -6.27068,-83.60903c42,28 63,56 117,63c54,7 95.85802,6.32209 108.35802,-32.82791c12.5,-39.15 3.64198,-9.17209 -11.35802,32.82791z" id="svg_33"/>
  <path fill="none" stroke-width="1.5" stroke-opacity="null" fill-opacity="0.72" opacity="0.5" d="m227.97334,193.04705c-12.04363,-2.33417 -25.08191,6.2825 -32.16319,28.43903c-7.08129,22.15654 -6.73292,26.42043 -8.08716,37.25435" id="svg_90" stroke="#ffffff"/>
  <path fill="none" stroke-width="1.5" stroke-opacity="null" fill-opacity="0.72" opacity="0.5" d="m245.97975,199.29666c-15.48295,-0.40434 -27.20084,6.81324 -34.88035,30.84158c-7.67952,24.02833 -7.30173,28.65244 -8.77037,40.40161" id="svg_92" stroke="#ffffff"/>
  <path fill="none" stroke-width="1.5" stroke-opacity="null" fill-opacity="0.72" opacity="0.5" d="m213.49553,185.02982c-12.66569,3.46332 -21.77204,8.86618 -30.14623,26.65561c-8.37418,17.78943 -6.3107,24.76359 -7.58001,34.91811" id="svg_93" stroke="#ffffff"/>
  <path fill="none" stroke-width="1.5" stroke-opacity="null" fill-opacity="0.72" opacity="0.5" d="m263.17096,203.8185c-12.46803,2.32024 -29.01288,7.26713 -37.20398,32.89616c-8.19111,25.62903 -7.78815,30.56119 -9.35463,43.09305" id="svg_95" stroke="#ffffff"/>
  <path fill="none" stroke-width="1.5" stroke-opacity="null" fill-opacity="0.72" opacity="0.5" d="m276.72192,205.72117c-6.0983,0.9228 -25.83231,16.64178 -32.46665,35.08256c-6.63434,18.44078 -8.00036,33.56437 -9.69002,47.08159" id="svg_96" stroke="#ffffff"/>
  <path fill="none" stroke="#ffffff" stroke-width="1.5" stroke-opacity="null" fill-opacity="0.72" opacity="0.5" d="m290.03556,207.2459c-10.86954,10.86954 -19.38401,19.74633 -25.90574,33.87673c-6.52172,14.1304 -10.86954,38.40571 -11.23186,42.93468c-0.36231,4.52898 -0.54347,8.33332 -0.54347,8.33332" id="svg_98"/>
  <path fill="none" stroke="#ffffff" stroke-width="1.5" stroke-opacity="null" fill-opacity="0.72" opacity="0.5" d="m311.21727,207.86889c-10.86954,10.86954 -19.38401,19.74633 -25.90573,33.87673c-6.52173,14.1304 -10.86954,38.40571 -11.23186,42.93468c-0.36232,4.52898 -0.54348,8.33332 -0.54348,8.33332" id="svg_99"/>
  <path fill="none" stroke="#ffffff" stroke-width="1.5" stroke-opacity="null" fill-opacity="0.72" opacity="0.5" d="m322.89654,208.82678c-10.27936,17.44377 -16.82077,28.65762 -20.87022,42.98642c-4.04944,14.32881 -8.09889,29.28061 -8.09889,34.26454c0,4.98393 0,4.98393 -0.18689,4.85934" id="svg_100"/>
  <path fill="none" stroke="#ffffff" stroke-width="1.5" stroke-opacity="null" fill-opacity="0.72" opacity="0.5" d="m336.60236,207.8923c-8.72189,18.06675 -13.08283,28.96911 -15.57479,44.2324c-2.49197,15.26329 -4.67244,33.33005 -4.85933,33.20546" id="svg_101"/>
  <path fill="none" stroke-width="1.5" stroke-opacity="null" fill-opacity="0.72" opacity="0.5" d="m346.79766,204.15994c-5.47667,17.07432 -5.47667,29.31628 -6.44314,41.23609c-0.96647,11.91981 0,24.48393 0,24.48393" id="svg_102" stroke="#ffffff"/>
  <path fill="none" stroke="#ffffff" stroke-width="1.5" stroke-opacity="null" fill-opacity="0.72" opacity="0.5" d="m355.01574,200.92825c0.28654,9.16922 0.57308,14.61344 2.57885,22.92305c2.00576,8.30961 2.2923,9.16922 2.12038,8.93999" id="svg_103"/>
  <path fill="none" stroke-width="1.5" stroke-opacity="null" fill-opacity="0.72" opacity="0.5" d="m198.59554,175.37955c-11.45001,3.13091 -19.68231,8.01519 -27.25272,24.09715c-7.57042,16.08196 -5.70499,22.38673 -6.85247,31.56659" id="svg_112" stroke="#ffffff"/>
  <path fill="none" stroke-width="1.5" stroke-opacity="null" fill-opacity="0.72" opacity="0.5" d="m184.61995,163.99291c-9.74594,2.66495 -16.75306,6.82231 -23.1968,20.51085c-6.44373,13.68854 -4.85593,19.05499 -5.83263,26.86864" id="svg_113" transform="rotate(8 170.1052246093747,187.682647705078) " stroke="#ffffff"/>
  <path fill="none" stroke-width="1.5" stroke-opacity="null" fill-opacity="0.72" opacity="0.5" d="m172.98141,154.45643c-8.18991,2.23946 -14.07828,5.73306 -19.49321,17.2361c-5.41494,11.50304 -4.08064,16.01269 -4.90141,22.57883" id="svg_114" transform="rotate(22 160.78410339355477,174.36389160156247) " stroke="#ffffff"/>
  <path fill="none" stroke-width="1.5" stroke-opacity="null" fill-opacity="0.72" opacity="0.5" d="m161.81787,144.37432c-6.31509,1.7268 -10.8555,4.42066 -15.03085,13.29044c-4.17536,8.86977 -3.14651,12.34708 -3.77938,17.4101" id="svg_115" transform="rotate(33 152.4127502441407,159.72457885742185) " stroke="#ffffff"/>
  <path fill="none" stroke="#ffffff" stroke-width="1.5" stroke-opacity="null" fill-opacity="0.5" opacity="0.5" d="m134.77123,141.69935c30.71896,28.10457 60.13072,49.6732 101.30719,64.70588c41.17647,15.03268 93.79085,14.37908 111.11111,10.45751c17.32026,-3.92156 20.26144,-6.20915 20.13073,-6.40522" id="svg_117"/>
  <path fill="none" stroke-width="1.5" stroke-opacity="null" fill-opacity="0.5" opacity="0.5" d="m138.98932,164.19149c29.44121,26.93558 57.62961,47.60707 97.09337,62.01448c39.46376,14.4074 89.88967,13.78099 106.48951,10.02254c16.59983,-3.75846 19.41867,-5.95089 19.2934,-6.13881" id="svg_118" transform="rotate(-4 250.42941284179713,201.3531188964842) " stroke="#ffffff"/>
  <path fill="none" stroke-width="1.5" stroke-opacity="null" fill-opacity="0.5" opacity="0.5" d="m152.68507,188.73535c26.81762,24.53527 52.49406,43.36466 88.44108,56.48817c35.94702,13.12352 81.87932,12.55293 96.99989,9.12941c15.12057,-3.42353 17.68822,-5.42059 17.5741,-5.59176" id="svg_119" transform="rotate(-8 254.1943664550782,222.5854034423828) " stroke="#ffffff"/>
  <path fill="none" stroke-width="1.5" stroke-opacity="null" fill-opacity="0.5" opacity="0.5" d="m172.46311,216.76324c23.42229,21.4289 45.84789,37.87434 77.24372,49.33632c31.39584,11.46197 71.51275,10.96362 84.71893,7.97354c13.20619,-2.99008 15.44874,-4.73429 15.34908,-4.8838" id="svg_120" transform="rotate(-12 261.120544433594,246.32759094238278) " stroke="#ffffff"/>
  <path fill="none" stroke-width="1.5" stroke-opacity="null" fill-opacity="0.5" opacity="0.5" d="m205.02726,244.43734c18.44344,16.87379 36.10206,29.82344 60.82412,38.84895c24.72205,9.02552 56.31135,8.6331 66.71031,6.27862c10.39896,-2.35448 12.16482,-3.72793 12.08634,-3.84565" id="svg_121" transform="rotate(-20 274.83886718750017,267.71722412109386) " stroke="#ffffff"/>
  <path fill="none" stroke="#ffffff" stroke-width="1.5" stroke-opacity="null" fill-opacity="0.5" d="m341.22788,269.2981c50.82182,10.53524 88.59644,-21.92981 88.59644,-21.92981" id="svg_124" opacity="0.5"/>
  <path fill="none" stroke-width="1.5" stroke-opacity="null" fill-opacity="0.5" d="m347.96449,251.79864c54.55425,11.30896 95.10309,-23.54037 95.10309,-23.54037" id="svg_125" opacity="0.5" transform="rotate(-5 395.5160217285161,241.15744018554662) " stroke="#ffffff"/>
  <path fill="none" stroke-width="1.5" stroke-opacity="null" fill-opacity="0.5" d="m350.32799,231.84344c57.73625,11.96858 100.6502,-24.91342 100.6502,-24.91342" id="svg_126" opacity="0.5" transform="rotate(-14 400.65307617187483,220.58157348632827) " stroke="#ffffff"/>
  <path fill="none" stroke-width="1.5" stroke-opacity="null" fill-opacity="0.5" d="m352.72526,211.63788c57.73625,11.96858 100.6502,-24.91341 100.6502,-24.91341" id="svg_127" opacity="0.5" transform="rotate(-19 403.0503540039062,200.376007080078) " stroke="#ffffff"/>
  <path fill="none" stroke-width="1.5" stroke-opacity="null" fill-opacity="0.5" d="m357.9004,190.27813c53.24959,11.03851 92.82871,-22.9774 92.82871,-22.9774" id="svg_129" opacity="0.5" transform="rotate(-24 404.31475830078114,179.89141845703116) " stroke="#ffffff"/>
  <path fill="none" stroke-width="1.5" stroke-opacity="null" fill-opacity="0.5" d="m362.15567,169.26862c47.3434,9.81416 82.53259,-20.42886 82.53259,-20.42886" id="svg_130" opacity="0.5" transform="rotate(-33 403.4219665527342,160.03393554687503) " stroke="#ffffff"/>
  <path fill="none" stroke="#ffffff" stroke-width="1.5" stroke-opacity="null" fill-opacity="0.5" opacity="0.5" d="m395.481,121.09636c19.17815,5.47947 29.45217,17.12335 33.56177,26.02749c4.10961,8.90415 8.21921,15.41102 10.27402,43.15086c2.0548,27.73983 -3.76714,50.00019 -4.04112,49.79472" id="svg_131"/>
  <path fill="none" stroke-width="1.5" stroke-opacity="null" fill-opacity="0.5" opacity="0.5" d="m390.31406,143.84898c16.86159,4.81759 25.89458,15.05499 29.50778,22.88358c3.6132,7.8286 7.22639,13.54949 9.03299,37.93858c1.8066,24.38908 -3.3121,43.96057 -3.55298,43.77991" id="svg_132" transform="rotate(-3 409.77709960937426,196.15063476562455) " stroke="#ffffff"/>
  <path stroke="#ffffff" fill="none" stroke-width="1.5" stroke-opacity="null" fill-opacity="0.5" opacity="0.5" d="m383.526816,170.79043c13.406099,4.241727 20.587934,13.255415 23.460671,20.148226c2.872737,6.89282 5.745466,11.929872 7.181835,33.40365c1.436369,21.473768 -2.633342,38.70581 -2.824858,38.546745" id="svg_1" transform="rotate(-3 399.00125122070057,216.8402862548829) "/>
  <path stroke="#ffffff" fill="none" stroke-width="1.5" stroke-opacity="null" fill-opacity="0.5" opacity="0.5" d="m375.365876,192.489172c11.148306,3.527355 17.12061,11.022999 19.509533,16.754956c2.388924,5.731963 4.777841,9.920698 5.972304,27.777961c1.194462,17.857255 -2.189847,32.187157 -2.349109,32.054881" id="svg_2" transform="rotate(-3 388.23419189452994,230.78352355957045) "/>
  <path stroke="#ffffff" transform="rotate(15 365.7706909179688,251.0869598388672) " filter="url(#svg_3_blur)" fill="none" stroke-width="1.5" stroke-opacity="null" fill-opacity="0.5" opacity="0.5" d="m357.112347,225.320882c7.501055,2.373355 11.519475,7.416743 13.126845,11.273448c1.60737,3.856709 3.214735,6.675068 4.01842,18.690195c0.803685,12.015122 -1.473422,21.65689 -1.58058,21.567889" id="svg_3"/>
  <path stroke="#ffffff" transform="rotate(3 376.8794250488302,241.5618133544922) " fill="none" stroke-width="1.5" stroke-opacity="null" fill-opacity="0.5" opacity="0.5" d="m365.720687,208.354944c9.667232,3.058739 14.846104,9.558574 16.917654,14.529028c2.071551,4.970462 4.143096,8.602715 5.178872,24.087607c1.035775,15.484885 -1.898922,27.911031 -2.037025,27.796328" id="svg_4"/>
  <path stroke="#ffffff" transform="rotate(29 353.038818359375,262.4277038574218) " filter="url(#svg_3_blur)" fill="none" stroke-width="1.5" stroke-opacity="null" fill-opacity="0.5" opacity="0.5" d="m347.446921,245.786948c4.844479,1.532807 7.439734,4.790028 8.477838,7.28084c1.038103,2.490816 2.076204,4.311024 2.595255,12.07087c0.519052,7.759843 -0.951594,13.98688 -1.020801,13.929399" id="svg_5"/>
  <path stroke="#ffffff" fill="none" stroke-width="1.5" stroke-opacity="null" fill-opacity="0.5" d="m370.847782,144.5819c34.542454,7.160558 60.217014,-14.905202 60.217014,-14.905202" id="svg_7" opacity="0.5" transform="rotate(-43 400.95629882812494,137.84414672851565) "/>
 </g>
</svg>