<svg width="230" height="238" xmlns="http://www.w3.org/2000/svg" xmlns:xlink="http://www.w3.org/1999/xlink" xml:space="preserve" overflow="hidden"><g transform="translate(-2191 -1545)"><path d="M2246.36 1550.5C2216.95 1547.98 2198.8 1570.2 2200.5 1593.06 2193.71 1634.08 2194.98 1683.71 2200.5 1734.94 2196.49 1755.38 2220.14 1779.34 2246.36 1777.5 2310.01 1779.48 2325.92 1771.89 2383.93 1777.5 2388.51 1777.45 2392.64 1776.86 2399.21 1777.5 2406.71 1778.34 2415.37 1771.32 2414.5 1763.31 2414.02 1756.25 2407.23 1748.61 2399.21 1749.12 2400.47 1739.52 2400.62 1729.93 2399.21 1720.75 2408.07 1721.35 2414.55 1714.95 2414.5 1706.56 2415.1 1658.71 2417.41 1627.96 2414.5 1564.69 2414.78 1556.49 2407.05 1550.26 2399.21 1550.5 2392.86 1550.22 2388.6 1551.09 2383.93 1550.5 2316.89 1554.04 2276.71 1550.93 2246.36 1550.5ZM2246.36 1720.75C2282.71 1720.18 2339.33 1723.36 2368.64 1720.75 2367.85 1726.52 2367.97 1739.1 2368.64 1749.12 2327.33 1743.12 2288.51 1752.99 2246.36 1749.12 2237.57 1749.3 2231.25 1741.73 2231.07 1734.94 2229.94 1727.03 2238.42 1721.2 2246.36 1720.75ZM2261.64 1614.34C2261.42 1611.12 2264.72 1607.99 2269.29 1607.25 2292.39 1608.35 2316.2 1606.8 2361 1607.25 2365.43 1607.18 2368.97 1610.37 2368.64 1614.34 2368.78 1618.36 2364.4 1621.16 2361 1621.44 2318.68 1620.74 2307.71 1619.73 2269.29 1621.44 2264.77 1621.32 2262.31 1617.59 2261.64 1614.34ZM2269.29 1635.63C2302.14 1637.49 2327.49 1636.3 2361 1635.63 2364.95 1635.62 2368.96 1638.91 2368.64 1642.72 2368.8 1646.58 2365.09 1650.56 2361 1649.81 2339.62 1649.36 2302.14 1646.25 2269.29 1649.81 2265.4 1650.59 2261.91 1646.88 2261.64 1642.72 2261.31 1638.38 2264.87 1635.83 2269.29 1635.63Z" stroke="#0D0D0D" stroke-width="9.16667" stroke-miterlimit="8" fill="none" fill-rule="evenodd"/></g></svg>