<svg width="224" height="238" xmlns="http://www.w3.org/2000/svg" xmlns:xlink="http://www.w3.org/1999/xlink" xml:space="preserve" overflow="hidden"><g transform="translate(-3075 -897)"><path d="M3234.14 1007.8C3222.51 1010.44 3213.35 1005.7 3204.41 996.536 3199.8 992.497 3196.28 986.986 3190.26 979.644 3183.13 972.246 3181.3 963.451 3181.56 954.639 3181.45 952.757 3181.7 951.761 3181.56 949.274 3173.9 944.078 3159.35 935.011 3151.95 929.988 3149.88 928.256 3148.52 926.007 3148.87 923.471 3149.05 920.274 3150.24 918.412 3152.4 917.263 3159.45 913.306 3163.58 910.245 3169.93 907.953 3178.35 905.252 3184.65 903.712 3191.67 902.5 3193.69 902.537 3197.01 902.524 3198.4 902.5 3212.15 904.25 3224.16 908.862 3235.07 919.835 3238.23 924.163 3245.75 933.506 3251.64 938.456 3261.22 948.494 3263.78 966.334 3261.52 976.585 3263.93 978.866 3264.92 981.223 3267.39 983.634 3268.82 982.265 3269.58 980.758 3270.37 980.088 3274.82 975.344 3279.79 975.997 3282.96 980.088 3285.99 983.815 3287.75 985.263 3291.88 990.728 3295.07 994.82 3295.26 1001.16 3291.88 1005.76 3285.23 1013.57 3276.48 1026.58 3259.18 1044.77 3254.66 1049.55 3250.19 1048.88 3246.59 1044.77 3244.38 1041.25 3241.34 1038.93 3237.67 1034.13 3234.18 1029.72 3234.09 1022.49 3237.67 1019.1 3238.7 1017.54 3239.24 1017.32 3240.64 1015.56 3238.09 1012.9 3237.48 1011.46 3234.14 1007.8ZM3090.68 1069.69C3115.55 1040.25 3140.45 1014.08 3177.44 983.457 3178.83 985.602 3180.03 988.075 3181.82 989.664 3186.83 994.529 3190.92 1001.55 3195.98 1006.56 3198.61 1008.98 3200.35 1011.63 3203.11 1013.52 3174.61 1048.78 3149.33 1080.45 3130.62 1117.35 3126.11 1125.04 3116.78 1129.47 3108.85 1129.5 3092.78 1126.6 3079.5 1114.22 3080.5 1095.67 3080.14 1084.68 3086.48 1076.32 3090.68 1069.69Z" stroke="#0D0D0D" stroke-width="9.16667" stroke-miterlimit="8" fill="none" fill-rule="evenodd"/></g></svg>