<svg width="712" height="720" xmlns="http://www.w3.org/2000/svg" xmlns:xlink="http://www.w3.org/1999/xlink" xml:space="preserve" overflow="hidden"><defs><clipPath id="clip0"><rect x="284" y="0" width="712" height="720"/></clipPath></defs><g clip-path="url(#clip0)" transform="translate(-284 0)"><path d="M194.421 0.0978777C203.909-0.393218 213.067 0.962274 221.732 4.19224 235.047 9.27846 246.597 20.0416 253.059 33.9322 258.734 46.0645 259.519 70.7183 254.822 84.0223 246.597 107.307 227.8 125.112 195.299 140.375 169.261 152.507 161.625 154.268 154.972 149.962 144.396 143.115 141.853 125.897 149.882 116.699 151.644 114.547 160.452 109.459 169.654 105.351 206.265 88.1326 216.644 76.5893 215.076 53.5004 214.292 43.3239 204.114 40.5851 185.902 46.0645 159.863 53.6956 117.183 92.438 90.1686 132.744 54.338 185.77 33.7809 257.773 47.0917 283.408 59.4265 306.89 87.0366 309.822 123.645 291.039 129.127 288.298 143.222 279.298 154.972 271.082 214.49 229.405 265.589 180.095 307.29 123.743 332.74 89.5017 364.656 57.0211 384.429 45.2821 406.357 32.1716 418.103 28.846 441.794 28.6508 460.197 28.4551 463.525 29.0418 473.706 33.7365 487.999 40.3899 504.441 56.0429 511.686 69.7407 516.187 78.5451 518.539 80.8925 525.781 83.6313 532.243 86.1767 534.984 88.5235 537.14 93.612 539.683 99.6759 539.289 103.982 532.832 142.529 525.979 183.423 515.8 230.579 505.615 267.167 502.877 276.752 500.918 284.777 501.309 285.171 502.483 286.344 550.646 253.861 564.94 242.124 608.014 207.49 639.34 170.312 659.109 131.374 669.881 109.657 674.189 104.373 682.019 101.635 694.55 97.5243 707.468 103.395 710.797 114.938 713.539 123.939 692.2 164.833 667.332 198.487 650.3 221.576 613.687 258.752 585.69 281.256 563.766 298.67 529.306 321.955 499.351 339.369L479.579 350.912 465.481 386.72C450.21 425.46 413.01 502.163 391.869 538.163 324.711 653.02 277.726 703.308 225.059 716.999 184.532 727.572 140.679 709.368 124.039 675.128 105.242 636.387 119.531 585.906 164.955 529.947 223.101 458.333 307.684 392.784 420.844 331.539L445.706 318.04 453.342 294.56C459.804 274.798 482.906 186.162 482.906 181.073 482.906 180.291 470.376 191.836 455.105 206.705 424.565 236.447 411.248 247.404 385.602 263.451 350.363 285.557 320.601 292.015 300.239 282.036 288.102 276.168 276.552 261.688 272.051 247.015 270.289 240.946 268.526 235.469 268.132 235.078 267.937 234.684 261.086 240.557 253.059 248.189 220.754 278.909 164.562 319.214 135.391 332.911 92.3202 353.064 52.7731 349.738 24.7761 323.713-9.88052 291.43-8.11815 232.141 29.6712 151.529 54.1428 99.2849 97.9954 48.4119 144.985 17.8877 161.874 6.88216 178.603 0.920164 194.421 0.0978777ZM419.908 384.391C419.514 384.193 412.666 387.912 404.636 392.802 318.887 444.068 287.951 466.766 235.482 516.858 184.578 565.577 162.65 597.276 160.496 624.67 159.125 641.303 160.888 649.913 167.153 657.544 174.789 666.541 185.948 671.042 201.417 671.042 248.013 671.236 280.903 639.346 346.884 530.16 375.27 483.004 423.238 387.129 419.908 384.391ZM439.091 74.8263C432.694 74.6909 425.854 75.8045 418.854 78.2987 390.075 88.668 366.777 113.127 334.08 167.327 316.069 197.46 312.545 206.069 312.545 220.156 312.741 231.308 315.288 235.812 323.313 238.939 344.264 246.964 420.812 188.851 464.67 131.912 477.98 114.496 478.374 113.713 477.004 106.082 473.479 86.859 458.281 75.2287 439.091 74.8263Z" fill="#262626" fill-rule="evenodd" transform="matrix(1.00135 0 0 1 284 1.8e-05)"/></g></svg>