<?xml version="1.0" encoding="UTF-8" standalone="no"?>
<svg
   xmlns:dc="http://purl.org/dc/elements/1.1/"
   xmlns:cc="http://creativecommons.org/ns#"
   xmlns:rdf="http://www.w3.org/1999/02/22-rdf-syntax-ns#"
   xmlns:svg="http://www.w3.org/2000/svg"
   xmlns="http://www.w3.org/2000/svg"
   viewBox="0 0 1666 1687"
   height="1687"
   width="1666"
   xml:space="preserve"
   id="svg2"
   version="1.1"><metadata
     id="metadata8"><rdf:RDF><cc:Work
         rdf:about=""><dc:format>image/svg+xml</dc:format><dc:type
           rdf:resource="http://purl.org/dc/dcmitype/StillImage" /></cc:Work></rdf:RDF></metadata><defs
     id="defs6"><clipPath
       id="clipPath24"
       clipPathUnits="userSpaceOnUse"><path
         id="path22"
         d="M 0,0 H 1250 V 1266 H 0 Z" /></clipPath></defs><g
     transform="matrix(1.3333333,0,0,1.3333333,0,4.2175e-5)"
     id="g10"><g
       id="g12" /><g
       id="g14"><g
         id="g16"><g
           id="g18"><g
             clip-path="url(#clipPath24)"
             id="g20"><g
               id="g26"><path
                 id="path28"
                 style="fill:#ffffff;fill-opacity:1;fill-rule:evenodd;stroke:none"
                 d="m 341.656,0.172 c 16.672,-0.863 32.766,1.519 47.992,7.195 23.399,8.938 43.696,27.852 55.051,52.262 9.973,21.32 11.352,64.644 3.098,88.023 -14.453,40.918 -47.485,72.207 -104.598,99.028 -45.758,21.32 -59.176,24.414 -70.867,16.847 -18.586,-12.031 -23.055,-42.289 -8.945,-58.453 3.097,-3.781 18.574,-12.722 34.746,-19.941 64.336,-30.258 82.574,-50.543 79.82,-91.117 C 376.574,76.133 358.688,71.32 326.684,80.949 280.926,94.359 205.926,162.441 158.453,233.27 95.488,326.453 59.363,452.984 82.754,498.031 c 21.676,41.266 70.195,46.418 134.527,13.41 9.633,-4.816 34.403,-20.632 55.051,-35.07 C 376.922,403.133 466.719,316.48 540,217.453 584.723,157.281 640.809,100.203 675.555,79.574 714.09,56.535 734.73,50.691 776.363,50.348 c 32.34,-0.344 38.188,0.687 56.078,8.937 25.118,11.692 54.012,39.199 66.743,63.27 7.91,15.472 12.043,19.597 24.769,24.41 11.356,4.473 16.172,8.597 19.961,17.539 4.469,10.656 3.777,18.223 -7.57,85.961 -12.043,71.863 -29.93,154.73 -47.828,219.027 -4.813,16.844 -8.254,30.946 -7.567,31.637 2.063,2.062 86.699,-55.02 111.817,-75.645 75.691,-60.863 130.742,-126.195 165.488,-194.621 18.922,-38.164 26.492,-47.449 40.254,-52.261 22.019,-7.223 44.722,3.093 50.57,23.378 4.817,15.817 -32.683,87.68 -76.379,146.821 -29.933,40.574 -94.265,105.902 -143.465,145.449 -38.531,30.602 -99.086,71.52 -151.726,102.121 l -34.746,20.285 -24.774,62.926 c -26.836,68.078 -92.207,202.867 -129.359,266.129 -118.016,201.84 -200.582,290.207 -293.133,314.273 -71.219,18.571 -148.281,-13.41 -177.523,-73.582 -33.032,-68.078 -7.922,-156.789 71.902,-255.129 102.18,-125.847 250.816,-241.035 449.672,-348.66 l 43.691,-23.722 13.418,-41.262 c 11.356,-34.727 51.953,-190.488 51.953,-199.43 0,-1.375 -22.019,18.914 -48.855,45.043 -53.668,52.266 -77.07,71.52 -122.137,99.719 -61.926,38.848 -114.226,50.195 -150.008,32.66 -21.328,-10.312 -41.625,-35.758 -49.535,-61.543 -3.097,-10.664 -6.195,-20.289 -6.886,-20.976 -0.344,-0.692 -12.383,9.628 -26.489,23.039 C 387.93,490.125 289.184,560.953 237.922,585.023 162.234,620.438 92.738,614.594 43.539,568.859 -17.363,512.129 -14.266,407.941 52.141,266.281 95.145,174.473 172.207,85.074 254.781,31.434 284.461,12.094 313.859,1.617 341.656,0.172 Z m 396.246,675.316 c -0.691,-0.347 -12.726,6.188 -26.836,14.782 -150.687,90.089 -205.05,129.976 -297.254,218.003 -89.453,85.614 -127.988,141.313 -131.773,189.457 -2.41,29.227 0.688,44.356 11.699,57.766 13.418,15.816 33.028,23.723 60.211,23.723 81.883,0.343 139.68,-55.703 255.629,-247.571 49.883,-82.867 134.176,-251.347 128.324,-256.16 z m 33.711,-543.996 c -11.242,-0.238 -23.261,1.719 -35.562,6.102 -50.574,18.222 -91.516,61.203 -148.973,156.449 -31.652,52.953 -37.844,68.082 -37.844,92.836 0.344,19.598 4.821,27.512 18.922,33.008 36.817,14.101 171.336,-88.02 248.406,-188.078 23.391,-30.606 24.083,-31.981 21.676,-45.391 -6.195,-33.781 -32.902,-54.219 -66.625,-54.926 z" /></g></g></g></g></g></g></svg>