<svg width="224" height="237" xmlns="http://www.w3.org/2000/svg" xmlns:xlink="http://www.w3.org/1999/xlink" xml:space="preserve" overflow="hidden"><g transform="translate(-2195 -1262)"><path d="M2352.26 1275.82C2346.72 1280.87 2341.1 1285.68 2332.01 1297.3 2350.06 1315.17 2374.87 1342.06 2386.4 1355 2396.13 1345.09 2400.66 1337.74 2406.65 1333.52 2416.37 1320.01 2417.66 1302.43 2406.65 1293.35 2401.83 1289.48 2398.64 1283.37 2390.17 1275.82 2379.33 1261.13 2361.05 1267.11 2352.3 1275.82 2352.29 1275.82 2352.27 1275.82 2352.26 1275.82ZM2322.55 1307.33C2286.44 1352.72 2247.84 1379.57 2225.02 1410.83 2220.71 1415.91 2217.8 1421.65 2215.73 1427.43 2209.27 1446.81 2204.92 1458.97 2200.92 1480.82 2199.05 1484.27 2200.53 1487.87 2203.43 1491.38 2205.41 1493.55 2209.46 1494.6 2213.34 1494.09 2234.71 1489.98 2244.96 1485.48 2263.68 1478.38 2268.84 1477.83 2275.72 1473.69 2279.33 1468.52 2301.18 1443.25 2327.61 1412.19 2376.95 1365.03 2366.32 1352.44 2346.58 1332 2322.55 1307.33Z" stroke="#0D0D0D" stroke-width="9.16667" stroke-miterlimit="8" fill="none" fill-rule="evenodd"/></g></svg>