<svg width="441" height="264" xmlns="http://www.w3.org/2000/svg" xmlns:xlink="http://www.w3.org/1999/xlink" xml:space="preserve" overflow="hidden"><defs><clipPath id="clip0"><rect x="432" y="228" width="441" height="264"/></clipPath></defs><g clip-path="url(#clip0)" transform="translate(-432 -228)"><path d="M568.932 22.136C552 25.4693 538.531 33.5987 520.932 51.3333 497.599 74.5307 472.401 112 465.469 133.599 464.531 136.401 463.469 138.531 462.932 138.531 460.136 138.136 458.531 139.469 452.667 147.333 441.864 162 436.265 165.469 431.333 160 426.667 154.803 422 155.333 414.803 161.864L411.735 164.667 412.531 157.333C413.068 153.333 413.735 148.401 414.136 146.531 414.531 144.401 414 142.401 412.803 141.469 410 139.068 407.469 142.265 397.735 161.599L389.469 178 390.401 170.667C390.932 166.667 391.333 160 391.333 156 391.333 144.932 388.401 145.469 379.864 158.531 376 164.401 372.531 169.068 372.265 168.803 372 168.531 373.599 162.136 375.864 154.531 378 147.068 379.599 140.401 379.197 139.735 378.803 139.197 377.469 138.667 376.136 138.667 374.401 138.667 373.197 140.401 372 144.932 369.068 156 362.803 171.333 359.333 176 355.864 180.667 349.735 185.333 347.068 185.333 344.531 185.333 344.932 178 348.136 164 349.599 157.333 350.531 151.068 350.136 150 348.531 145.599 345.068 148.136 341.068 157.068 326.932 188.401 318.667 203.864 312 211.068 308.136 215.197 304.531 218.265 303.864 217.864 300.531 215.864 303.864 191.864 312.531 156.667 315.735 143.333 315.599 140 311.333 140 310.265 140 305.735 146.265 301.068 154.136 292.667 168.136 284 178.667 280.932 178.667 276.136 178.531 275.599 176.667 277.864 166.531 278.932 161.068 282.136 144.401 284.667 129.333 289.735 100.265 299.599 52.5307 303.864 36.136 305.333 30.6667 306.265 25.5987 305.864 25.068 303.333 21.068 300.401 26.4013 291.333 50 278.136 85.068 267.197 109.599 259.864 120.667 248.401 138.136 234.265 147.599 226.667 142.667 225.068 141.599 224.932 140.803 226.401 137.068 237.469 108.531 244.136 82.4013 243.864 67.7347 243.599 48.932 240.136 47.5987 231.333 62.6667 217.864 85.7347 211.333 117.599 216.531 134.932 218.265 140.803 218.136 141.333 214.401 148.932 210.803 155.735 190.265 190.803 175.864 214.401 172.932 219.068 170.667 223.735 170.667 224.803 170.667 227.864 174.265 226.932 177.068 222.932 180.803 217.735 217.197 156.265 219.735 151.068 221.197 147.864 222.401 146.803 223.864 147.469 231.735 150.932 237.735 149.197 250.136 139.864 261.068 131.735 273.735 110.265 286 78.932 288 73.7347 290 69.4693 290.265 69.7347 290.531 70 289.469 76.136 288 83.4693 286.531 90.6667 282.531 111.599 279.197 130 271.197 174.401 271.469 173.333 266.932 172.136 261.469 170.531 255.197 172.932 251.469 177.735 242.136 190 236.932 206.932 230.803 244.932 227.333 267.469 229.864 268.401 242.932 249.197 252.401 235.469 263.599 212.803 269.333 196.401 273.197 185.469 273.864 184.265 276.136 185.333 282.531 188.803 290.265 184.803 297.333 174.401 299.735 170.932 301.864 168.136 302.136 168.265 302.265 168.531 301.599 172.803 300.667 178 294.932 207.864 295.333 221.197 302 224.265 306.265 226.136 312.932 222 319.333 213.333 323.333 207.864 335.068 185.599 337.735 178.667 338.136 177.599 338.531 178.667 338.531 181.068 338.667 186.667 341.864 192.932 344.932 193.599 348.531 194.401 353.599 192.265 358.136 187.864 362.136 184 362.401 184 363.068 186.531 364.667 192.803 370.136 187.864 380.136 170.932 385.864 161.197 385.735 160.932 382.803 177.864 381.469 185.068 382.803 190.667 385.735 190.667 388.803 190.667 394.265 183.735 399.333 173.333 403.864 163.864 404.136 163.599 403.333 169.068 402.531 174.401 403.864 178.667 406.531 178.667 407.068 178.667 410.265 176 413.735 172.667 422.265 164.667 425.068 163.197 426.265 166.265 427.735 170.401 430.932 173.333 434 173.333 438.136 173.333 448.531 168.531 456 163.197L462.136 158.803 463.864 165.469C467.469 179.333 476.265 191.469 487.599 198.265 493.864 201.864 509.864 205.197 521.469 205.333 530.136 205.333 550.531 201.469 567.197 196.667 581.735 192.531 612 178.803 612 176.531 612 172.932 609.197 173.469 595.469 179.864 565.864 193.735 537.599 200.667 515.068 199.735 503.197 199.197 500.401 198.531 492.932 194.932 479.599 188.265 469.599 175.068 467.599 161.197 466.932 156.401 466.932 156.401 479.469 148 508 129.197 532.932 105.599 553.735 78 569.333 57.1973 577.333 43.1973 580.265 31.5987 583.469 18.8027 583.864 19.1973 568.932 22.136ZM574.136 32.932C569.469 46.932 552.401 71.5987 530.803 95.4693 516.531 111.469 501.864 124.136 482.932 137.068 466.803 148 465.735 147.864 470.667 134.265 483.197 100 525.333 47.7347 551.735 33.5987 558.667 29.864 574.401 24.932 575.864 26.136 576 26.2653 575.333 29.3333 574.136 32.932ZM236.667 85.068C234 99.1973 222.803 133.599 221.197 132.531 219.333 131.469 219.735 117.599 222 104.531 224.531 90.6667 230.932 70.8027 235.068 64L238 59.3333 238.401 66.4013C238.667 70.2653 237.864 78.6667 236.667 85.068ZM267.068 184.401C266.531 191.735 254.531 220 245.068 235.599 240.531 243.197 236.531 249.068 236.265 248.803 235.469 247.864 239.864 222.265 242.803 210.136 245.469 199.599 251.735 185.469 255.735 180.932 257.197 179.333 259.333 178.667 262.531 178.932 267.197 179.333 267.333 179.469 267.068 184.401Z" transform="matrix(1.00045 0 0 1 261.929 228)"/></g></svg>