<?xml version="1.0" encoding="UTF-8" standalone="no"?>
<svg
   xmlns:dc="http://purl.org/dc/elements/1.1/"
   xmlns:cc="http://creativecommons.org/ns#"
   xmlns:rdf="http://www.w3.org/1999/02/22-rdf-syntax-ns#"
   xmlns:svg="http://www.w3.org/2000/svg"
   xmlns="http://www.w3.org/2000/svg"
   viewBox="0 0 756 264"
   height="264"
   width="756"
   xml:space="preserve"
   id="svg2"
   version="1.1"><metadata
     id="metadata8"><rdf:RDF><cc:Work
         rdf:about=""><dc:format>image/svg+xml</dc:format><dc:type
           rdf:resource="http://purl.org/dc/dcmitype/StillImage" /></cc:Work></rdf:RDF></metadata><defs
     id="defs6" /><g
     transform="matrix(1.3333333,0,0,1.3333333,0,6.6e-6)"
     id="g10"><g
       id="g12"><path
         id="path14"
         style="fill:#000000;fill-opacity:1;fill-rule:nonzero;stroke:none"
         d="m 426.699,16.602 c -12.699,2.5 -22.801,8.597 -36,21.898 -17.5,17.398 -36.398,45.5 -41.597,61.699 -0.704,2.102 -1.5,3.699 -1.903,3.699 -2.097,-0.296 -3.301,0.704 -7.699,6.602 -8.102,11 -12.301,13.602 -16,9.5 -3.5,-3.898 -7,-3.5 -12.398,1.398 l -2.301,2.102 0.597,-5.5 c 0.403,-3 0.903,-6.699 1.204,-8.102 0.296,-1.597 -0.102,-3.097 -1,-3.796 -2.102,-1.801 -4,0.597 -11.301,15.097 l -6.199,12.301 0.699,-5.5 c 0.398,-3 0.699,-8 0.699,-11 0,-8.301 -2.199,-7.898 -8.602,1.898 -2.898,4.403 -5.5,7.903 -5.699,7.704 -0.199,-0.204 1,-5 2.699,-10.704 1.602,-5.597 2.801,-10.597 2.5,-11.097 -0.296,-0.403 -1.296,-0.801 -2.296,-0.801 -1.301,0 -2.204,1.301 -3.102,4.699 -2.199,8.301 -6.898,19.801 -9.5,23.301 -2.602,3.5 -7.199,7 -9.199,7 -1.903,0 -1.602,-5.5 0.801,-16 1.097,-5 1.796,-9.699 1.5,-10.5 -1.204,-3.301 -3.801,-1.398 -6.801,5.301 -10.602,23.5 -16.801,35.097 -21.801,40.5 -2.898,3.097 -5.602,5.398 -6.102,5.097 -2.5,-1.5 0,-19.5 6.5,-45.898 2.403,-10 2.301,-12.5 -0.898,-12.5 -0.801,0 -4.199,4.699 -7.699,10.602 C 219.5,126.102 213,134 210.699,134 c -3.597,-0.102 -4,-1.5 -2.301,-9.102 0.801,-4.097 3.204,-16.597 5.102,-27.898 3.801,-21.801 11.199,-57.602 14.398,-69.898 1.102,-4.102 1.801,-7.903 1.5,-8.301 -1.898,-3 -4.097,1 -10.898,18.699 -9.898,26.301 -18.102,44.699 -23.602,53 -8.597,13.102 -19.199,20.199 -24.898,16.5 -1.199,-0.801 -1.301,-1.398 -0.199,-4.199 8.301,-21.403 13.301,-41 13.097,-52 C 182.699,36.699 180.102,35.699 173.5,47 c -10.102,17.301 -15,41.199 -11.102,54.199 1.301,4.403 1.204,4.801 -1.597,10.5 -2.699,5.102 -18.102,31.403 -28.903,49.102 -2.199,3.5 -3.898,7 -3.898,7.801 0,2.296 2.699,1.597 4.801,-1.403 2.801,-3.898 30.097,-50 32,-53.898 1.097,-2.403 2,-3.199 3.097,-2.699 5.903,2.597 10.403,1.296 19.704,-5.704 8.199,-6.097 17.699,-22.199 26.898,-45.699 1.5,-3.898 3,-7.097 3.199,-6.898 0.199,0.199 -0.597,4.801 -1.699,10.301 -1.102,5.398 -4.102,21.097 -6.602,34.898 -6,33.301 -5.796,32.5 -9.199,31.602 -4.097,-1.204 -8.801,0.597 -11.597,4.199 -7,9.199 -10.903,21.898 -15.5,50.398 -2.602,16.903 -0.704,17.602 9.097,3.199 7.102,-10.296 15.5,-27.296 19.801,-39.597 2.898,-8.199 3.398,-9.102 5.102,-8.301 4.796,2.602 10.597,-0.398 15.898,-8.199 1.801,-2.602 3.398,-4.699 3.602,-4.602 0.097,0.199 -0.403,3.403 -1.102,7.301 -4.301,22.398 -4,32.398 1,34.699 3.199,1.403 8.199,-1.699 13,-8.199 3,-4.102 11.801,-20.801 13.801,-26 0.301,-0.801 0.597,0 0.597,1.801 0.102,4.199 2.5,8.898 4.801,9.398 2.699,0.602 6.5,-1 9.903,-4.301 3,-2.898 3.199,-2.898 3.699,-1 1.199,4.704 5.301,1 12.801,-11.699 4.296,-7.301 4.199,-7.5 2,5.199 -1,5.403 0,9.602 2.199,9.602 2.301,0 6.398,-5.199 10.199,-13 3.398,-7.102 3.602,-7.301 3,-3.199 -0.602,4 0.398,7.199 2.398,7.199 0.403,0 2.801,-2 5.403,-4.5 6.398,-6 8.5,-7.102 9.398,-4.801 1.102,3.102 3.5,5.301 5.801,5.301 3.102,0 10.898,-3.602 16.5,-7.602 l 4.602,-3.296 1.296,5 c 2.704,10.398 9.301,19.5 17.801,24.597 4.699,2.699 16.699,5.199 25.403,5.301 6.5,0 21.796,-2.898 34.296,-6.5 10.903,-3.102 33.602,-13.398 33.602,-15.102 0,-2.699 -2.102,-2.296 -12.398,2.5 -22.204,10.403 -43.403,15.602 -60.301,14.903 -8.903,-0.403 -11,-0.903 -16.602,-3.602 -10,-5 -17.5,-14.898 -19,-25.301 -0.5,-3.597 -0.5,-3.597 8.903,-9.898 C 381,96.898 399.699,79.199 415.301,58.5 427,42.898 433,32.398 435.199,23.699 c 2.403,-9.597 2.699,-9.301 -8.5,-7.097 z m 3.903,8.097 c -3.5,10.5 -16.301,29 -32.5,46.903 -10.704,12 -21.704,21.5 -35.903,31.199 -12.097,8.199 -12.898,8.097 -9.199,-2.102 9.398,-25.699 41,-64.898 60.801,-75.5 5.199,-2.801 17,-6.5 18.097,-5.597 C 432,19.699 431.5,22 430.602,24.699 Z M 177.5,63.801 c -2,10.597 -10.398,36.398 -11.602,35.597 -1.398,-0.796 -1.097,-11.199 0.602,-21 C 168.398,68 173.199,53.102 176.301,48 l 2.199,-3.5 0.301,5.301 c 0.199,2.898 -0.403,9.199 -1.301,14 z m 22.801,74.5 c -0.403,5.5 -9.403,26.699 -16.5,38.398 -3.403,5.699 -6.403,10.102 -6.602,9.903 -0.597,-0.704 2.699,-19.903 4.903,-29 2,-7.903 6.699,-18.5 9.699,-21.903 1.097,-1.199 2.699,-1.699 5.097,-1.5 3.5,0.301 3.602,0.403 3.403,4.102 z" /></g></g></svg>